<svg width="22" height="23" viewBox="0 0 22 23" fill="none" xmlns="http://www.w3.org/2000/svg">
<path d="M3.32761 13.3237C4.10396 9.59561 7.34937 6.94669 11 6.94669C14.6496 6.94669 17.895 9.59561 18.6725 13.3237C18.7033 13.4716 18.7916 13.6013 18.9179 13.6841C19.0443 13.7669 19.1984 13.7962 19.3464 13.7654C19.4943 13.7346 19.6239 13.6463 19.7068 13.5199C19.7896 13.3935 19.8188 13.2394 19.788 13.0915C18.9035 8.85114 15.2039 5.80835 11 5.80835C6.79614 5.80835 3.09652 8.85114 2.21203 13.0915C2.18124 13.2394 2.21047 13.3935 2.2933 13.5199C2.37613 13.6463 2.50577 13.7346 2.65371 13.7654C2.80164 13.7962 2.95575 13.7669 3.08213 13.6841C3.20851 13.6013 3.29681 13.4716 3.32761 13.3237ZM10.9886 9.22338C12.0453 9.22338 13.0587 9.64314 13.8059 10.3903C14.5531 11.1375 14.9728 12.1509 14.9728 13.2076C14.9728 14.2642 14.5531 15.2776 13.8059 16.0248C13.0587 16.772 12.0453 17.1918 10.9886 17.1918C9.93197 17.1918 8.91858 16.772 8.1714 16.0248C7.42421 15.2776 7.00445 14.2642 7.00445 13.2076C7.00445 12.1509 7.42421 11.1375 8.1714 10.3903C8.91858 9.64314 9.93197 9.22338 10.9886 9.22338Z" fill="#8C8C8C"/>
</svg>
