<svg width="24" height="25" viewBox="0 0 24 25" fill="none" xmlns="http://www.w3.org/2000/svg">
<path fill-rule="evenodd" clip-rule="evenodd" d="M16 12.5C16 10.2909 14.2091 8.5 12 8.5C9.7909 8.5 8 10.2909 8 12.5C8 14.7091 9.7909 16.5 12 16.5C12.5523 16.5 13 16.9477 13 17.5C13 18.0523 12.5523 18.5 12 18.5C8.6863 18.5 6 15.8137 6 12.5C6 9.18629 8.6863 6.5 12 6.5C15.3137 6.5 18 9.18629 18 12.5C18 13.0523 17.5523 13.5 17 13.5C16.4477 13.5 16 13.0523 16 12.5Z" fill="#FF4800"/>
<path fill-rule="evenodd" clip-rule="evenodd" d="M21 12.5C21 7.52944 16.9706 3.5 12 3.5C7.0294 3.5 3 7.52944 3 12.5C3 17.4706 7.0294 21.5 12 21.5C12.6177 21.5 13.22 21.4379 13.8011 21.32C14.3423 21.2101 14.8701 21.5598 14.98 22.101C15.0899 22.6423 14.7402 23.1701 14.1989 23.28C13.4876 23.4244 12.7521 23.5 12 23.5C5.9249 23.5 1 18.5751 1 12.5C1 6.42487 5.9249 1.5 12 1.5C18.0751 1.5 23 6.42487 23 12.5C23 13.2521 22.9244 13.9876 22.78 14.6989C22.6701 15.2402 22.1423 15.5899 21.601 15.48C21.0598 15.3701 20.7101 14.8423 20.82 14.3011C20.9379 13.72 21 13.1177 21 12.5Z" fill="#FF4800"/>
<path d="M21.9223 20.6421C22.5264 20.4845 22.8973 19.9963 22.981 19.4726C23.0616 18.9678 22.8824 18.4564 22.5169 18.0909L21.3675 16.9415C20.0981 15.6721 18.5338 15.5659 16.905 15.9909L12.707 11.7929C12.3165 11.4024 11.6833 11.4024 11.2928 11.7929C10.9022 12.1834 10.9022 12.8166 11.2928 13.2071L15.4907 17.4051C15.0658 19.0339 15.172 20.5983 16.4414 21.8677L17.5908 23.017C17.9563 23.3825 18.4677 23.5617 18.9724 23.4811C19.4962 23.3974 19.9844 23.0265 20.142 22.4224L20.5104 21.0105L21.9223 20.6421Z" fill="#FF4800"/>
</svg>
