<svg width="25" height="25" viewBox="0 0 25 25" fill="none" xmlns="http://www.w3.org/2000/svg">
<g clip-path="url(#clip0_232_6812)">
<mask id="mask0_232_6812" style="mask-type:luminance" maskUnits="userSpaceOnUse" x="0" y="1" width="24" height="24">
<path d="M0 1H24V25H0V1Z" fill="white"/>
</mask>
<g mask="url(#mask0_232_6812)">
<mask id="mask1_232_6812" style="mask-type:luminance" maskUnits="userSpaceOnUse" x="0" y="1" width="24" height="24">
<path d="M0 1H24V25H0V1Z" fill="white"/>
</mask>
<g mask="url(#mask1_232_6812)">
<path d="M15.3613 3.01863L5.08306 15.7218L4.50001 15.25V14.5H10.5C10.5493 14.5 10.598 14.5048 10.6463 14.5144C10.6946 14.524 10.7415 14.5382 10.787 14.5571C10.8325 14.576 10.8757 14.5991 10.9167 14.6264C10.9576 14.6537 10.9955 14.6848 11.0303 14.7197C11.0652 14.7545 11.0962 14.7924 11.1236 14.8333C11.151 14.8742 11.1741 14.9175 11.1929 14.963C11.2118 15.0085 11.226 15.0554 11.2356 15.1037C11.2452 15.152 11.25 15.2007 11.25 15.25C11.25 15.2951 11.246 15.3399 11.2379 15.3842L9.76087 23.5044C9.79593 23.3057 9.74938 23.1301 9.62121 22.9778C9.49308 22.8255 9.32946 22.7495 9.13037 22.75C9.03018 22.7501 8.93501 22.7728 8.84488 22.8181C8.7548 22.8634 8.67963 22.9265 8.61937 23.0074C8.62533 22.9994 8.63145 22.9915 8.63772 22.9837L18.9169 10.2783L19.5 10.75V11.5H13.5C13.4508 11.5 13.402 11.4952 13.3537 11.4856C13.3054 11.476 13.2585 11.4618 13.213 11.4429C13.1675 11.4241 13.1243 11.401 13.0833 11.3736C13.0424 11.3462 13.0045 11.3152 12.9697 11.2803C12.9349 11.2455 12.9038 11.2076 12.8764 11.1667C12.849 11.1257 12.8259 11.0825 12.8071 11.037C12.7883 10.9915 12.774 10.9446 12.7644 10.8963C12.7548 10.848 12.75 10.7992 12.75 10.75C12.75 10.7047 12.7541 10.6598 12.7622 10.6152L14.2463 2.49408L14.9841 2.62891L14.2397 2.5371C14.2163 2.7269 14.2681 2.89333 14.395 3.03638C14.5219 3.17945 14.681 3.25066 14.8723 3.25C14.9741 3.24959 15.0702 3.22622 15.1606 3.17987C15.251 3.13351 15.326 3.0692 15.3856 2.98694C15.3778 2.99772 15.3697 3.00828 15.3613 3.01863ZM14.1952 2.07512L14.7783 2.54688L14.171 2.10681C14.2518 1.99523 14.3535 1.90801 14.4761 1.84513C14.5987 1.78226 14.729 1.75055 14.8671 1.75001C15.1275 1.74911 15.3441 1.84606 15.517 2.04086C15.6898 2.23565 15.7603 2.46227 15.7284 2.72072C15.7267 2.73512 15.7245 2.74946 15.7218 2.76373L14.2378 10.8848L13.5 10.75V10H19.5C19.5859 10 19.6693 10.0143 19.7502 10.043C19.8311 10.0716 19.905 10.1129 19.9717 10.1669C20.01 10.1979 20.0449 10.2323 20.0764 10.2702C20.1079 10.308 20.1355 10.3486 20.159 10.3918C20.1825 10.4351 20.2015 10.4803 20.2162 10.5273C20.2308 10.5743 20.2407 10.6223 20.2459 10.6713C20.251 10.7202 20.2514 10.7693 20.2469 10.8183C20.2424 10.8673 20.2332 10.9155 20.2192 10.9627C20.2053 11.0099 20.1868 11.0553 20.1639 11.0989C20.141 11.1425 20.114 11.1834 20.0831 11.2217L9.80386 23.9272L9.22079 23.4555L9.82221 23.9036C9.7411 24.0125 9.63991 24.0974 9.51865 24.1583C9.39734 24.2193 9.26913 24.2499 9.13403 24.25C8.86603 24.2507 8.6458 24.1485 8.47332 23.9434C8.3008 23.7383 8.23806 23.5024 8.28509 23.2359L9.76212 15.1158L10.5 15.25V16H4.50001C4.41415 16 4.33074 15.9857 4.2498 15.957C4.16885 15.9284 4.095 15.8871 4.02825 15.8331C3.98997 15.8021 3.95508 15.7677 3.92357 15.7298C3.89207 15.6919 3.86456 15.6514 3.84104 15.6081C3.81753 15.5648 3.79846 15.5197 3.78383 15.4727C3.76921 15.4257 3.75932 15.3777 3.75415 15.3287C3.74898 15.2797 3.74864 15.2307 3.75313 15.1817C3.75761 15.1326 3.76684 15.0845 3.78081 15.0373C3.79478 14.99 3.81321 14.9446 3.83613 14.9011C3.85904 14.8575 3.88598 14.8165 3.91696 14.7782L14.1952 2.07512Z" fill="#FF4800"/>
</g>
</g>
</g>
<defs>
<clipPath id="clip0_232_6812">
<rect width="24" height="24" fill="white" transform="translate(0.5 0.5)"/>
</clipPath>
</defs>
</svg>
