<svg width="24" height="25" viewBox="0 0 24 25" fill="none" xmlns="http://www.w3.org/2000/svg">
<path d="M20.415 22.3408C21.7045 22.3408 22.75 21.2953 22.75 20.0058C22.75 19.655 22.671 19.3092 22.5195 18.9941L22.4502 18.8613L14.1436 4.09473C13.7079 3.32026 12.8886 2.84082 12 2.84082C11.1669 2.84082 10.3947 3.26225 9.94238 3.95312L9.85645 4.09473L1.5498 18.8613C1.35326 19.2107 1.25002 19.6049 1.25 20.0058C1.25 21.2953 2.29546 22.3408 3.58496 22.3408H20.415ZM12 11.1006C11.4477 11.1006 11 10.6529 11 10.1006V10.0908C11 9.53853 11.4477 9.09082 12 9.09082C12.5523 9.09082 13 9.53853 13 10.0908V10.1006C13 10.6529 12.5523 11.1006 12 11.1006ZM12 19.0908C11.4477 19.0908 11 18.6431 11 18.0908V13.5908C11 13.0385 11.4477 12.5908 12 12.5908C12.5523 12.5908 13 13.0385 13 13.5908V18.0908C13 18.6431 12.5523 19.0908 12 19.0908Z" fill="#DA0C0C"/>
</svg>
