<svg width="25" height="24" viewBox="0 0 25 24" fill="none" xmlns="http://www.w3.org/2000/svg">
<path fill-rule="evenodd" clip-rule="evenodd" d="M12.375 2.75C13.0654 2.75 13.625 3.30964 13.625 4V10.75H20.375C21.0654 10.75 21.625 11.3096 21.625 12C21.625 12.6904 21.0654 13.25 20.375 13.25H13.625V20C13.625 20.6904 13.0654 21.25 12.375 21.25C11.6846 21.25 11.125 20.6904 11.125 20V13.25H4.375C3.68464 13.25 3.125 12.6904 3.125 12C3.125 11.3096 3.68464 10.75 4.375 10.75H11.125V4C11.125 3.30964 11.6846 2.75 12.375 2.75Z" fill="#FF4800"/>
</svg>
