<svg width="27" height="27" viewBox="0 0 27 27" fill="none" xmlns="http://www.w3.org/2000/svg">
<g clip-path="url(#clip0_166_1675)">
<path d="M8.16853 26.0133C7.65592 25.6723 7.2016 25.2509 6.82303 24.7653C6.40661 24.2642 6.02079 23.7383 5.66766 23.1907C4.83897 21.9767 4.1891 20.6498 3.73797 19.2509C3.19603 17.6259 2.93359 16.0683 2.93359 14.5449C2.93359 12.8435 3.30166 11.3583 4.02153 10.1103C4.55516 9.13482 5.33974 8.31966 6.29409 7.74914C7.21897 7.17468 8.28166 6.86031 9.37022 6.83914C9.75128 6.83914 10.1616 6.89439 10.5971 7.00002C10.9099 7.08858 11.291 7.22833 11.7565 7.40221C12.3488 7.63052 12.6747 7.77027 12.7852 7.80439C13.1321 7.93114 13.4238 7.98639 13.6529 7.98639C13.8268 7.98639 14.0722 7.93114 14.3508 7.84664C14.5077 7.79139 14.8034 7.69389 15.2267 7.51271C15.646 7.35996 15.9758 7.22914 16.2383 7.13164C16.6405 7.01302 17.0297 6.90333 17.3766 6.84808C17.7879 6.78324 18.2053 6.76606 18.6205 6.79689C19.3401 6.84393 20.0488 6.99641 20.7241 7.24946C21.8283 7.69389 22.7212 8.38777 23.3858 9.37414C23.1049 9.54728 22.8413 9.74699 22.5985 9.97052C22.0701 10.439 21.62 10.989 21.2652 11.5996C20.8015 12.4341 20.5611 13.3741 20.5673 14.3288C20.5843 15.5012 20.885 16.5339 21.4773 17.4268C21.9127 18.0886 22.4787 18.6546 23.1405 19.09C23.4793 19.3183 23.771 19.4751 24.0505 19.5808C23.9197 19.987 23.7799 20.3803 23.615 20.7703C23.2409 21.6448 22.7875 22.4833 22.2605 23.2752C21.7909 23.9569 21.4228 24.4647 21.1433 24.8027C20.7078 25.3186 20.2886 25.7127 19.8653 25.9873C19.3997 26.2961 18.8497 26.461 18.2907 26.461C17.9121 26.4756 17.5336 26.4298 17.1694 26.3253C16.8566 26.2197 16.547 26.1051 16.2423 25.9743C15.9256 25.8288 15.599 25.7058 15.2649 25.6063C14.4392 25.3942 13.5734 25.3928 12.747 25.6022C12.4082 25.6997 12.0823 25.8135 11.7606 25.9532C11.308 26.1433 11.0074 26.2709 10.8335 26.3253C10.4866 26.4269 10.1267 26.4903 9.76266 26.5114C9.19959 26.5114 8.67472 26.3505 8.15472 26.0247L8.16853 26.0133ZM15.5948 6.01364C14.8587 6.38171 14.1558 6.53852 13.4579 6.48733C13.3482 5.78452 13.4579 5.06546 13.7496 4.27814C13.9979 3.61114 14.3648 2.99454 14.8327 2.45814C15.3267 1.89347 15.9261 1.43064 16.5974 1.09558C17.3124 0.727519 17.9941 0.528457 18.6457 0.499207C18.7302 1.23533 18.6457 1.95927 18.3752 2.74171C18.1248 3.43337 17.7585 4.0774 17.2921 4.64621C16.816 5.21165 16.2318 5.67628 15.5737 6.01283L15.5948 6.01364Z" fill="black"/>
</g>
<defs>
<clipPath id="clip0_166_1675">
<rect width="26" height="26" fill="white" transform="translate(0.5 0.5)"/>
</clipPath>
</defs>
</svg>
