<svg width="20" height="21" viewBox="0 0 20 21" fill="none" xmlns="http://www.w3.org/2000/svg">
<path d="M13.3333 2.16666V5.49999M6.66667 2.16666V5.49999" stroke="#FF4800" stroke-width="1.5" stroke-linecap="round" stroke-linejoin="round"/>
<path d="M17.5 12.1667V10.5C17.5 7.35731 17.5 5.78597 16.5237 4.80965C15.5474 3.83334 13.976 3.83334 10.8333 3.83334H9.16667C6.02397 3.83334 4.45262 3.83334 3.47631 4.80965C2.5 5.78597 2.5 7.35731 2.5 10.5V12.1667C2.5 15.3093 2.5 16.8808 3.47631 17.857C4.45262 18.8333 6.02397 18.8333 9.16667 18.8333H10" stroke="#FF4800" stroke-width="1.5" stroke-linecap="round" stroke-linejoin="round"/>
<path d="M2.5 8.83334H17.5" stroke="#FF4800" stroke-width="1.5" stroke-linecap="round" stroke-linejoin="round"/>
<path d="M15.0872 13.4213L15.6005 14.4562C15.6705 14.6003 15.8572 14.7385 16.0146 14.765L16.9449 14.9208C17.5398 15.0208 17.6798 15.456 17.2512 15.8853L16.5279 16.6145C16.4054 16.738 16.3383 16.9763 16.3762 17.1468L16.5833 18.0495C16.7467 18.764 16.3704 19.0404 15.7434 18.667L14.8714 18.1465C14.7139 18.0524 14.4544 18.0524 14.294 18.1465L13.422 18.667C12.7979 19.0404 12.4187 18.7611 12.5821 18.0495L12.7892 17.1468C12.8271 16.9763 12.76 16.738 12.6375 16.6145L11.9142 15.8853C11.4884 15.456 11.6255 15.0208 12.2205 14.9208L13.1507 14.765C13.3053 14.7385 13.492 14.6003 13.562 14.4562L14.0752 13.4213C14.3552 12.8596 14.8102 12.8596 15.0872 13.4213Z" stroke="#FF4800" stroke-width="1.5" stroke-linecap="round" stroke-linejoin="round"/>
</svg>
