<svg width="18" height="18" viewBox="0 0 18 18" fill="none" xmlns="http://www.w3.org/2000/svg">
<path fill-rule="evenodd" clip-rule="evenodd" d="M5.67042 2.58495C5.84907 2.049 6.35063 1.6875 6.91557 1.6875H11.0844C11.6494 1.6875 12.1509 2.049 12.3295 2.58495L12.7804 3.9375H15C16.1391 3.9375 17.0625 4.86091 17.0625 6V14.25C17.0625 15.3891 16.1391 16.3125 15 16.3125H3C1.86092 16.3125 0.9375 15.3891 0.9375 14.25V6C0.9375 4.86091 1.86092 3.9375 3 3.9375H5.21957L5.67042 2.58495ZM6 10.5C6 8.84303 7.34379 7.5 9.00113 7.5C10.6584 7.5 12.0022 8.84303 12.0022 10.5C12.0022 12.157 10.6584 13.5 9.00113 13.5C7.34379 13.5 6 12.157 6 10.5ZM9 3.75C8.58577 3.75 8.25 4.08579 8.25 4.5C8.25 4.91421 8.58577 5.25 9 5.25C9.41422 5.25 9.75008 4.91421 9.75008 4.5C9.75008 4.08579 9.41422 3.75 9 3.75Z" fill="white"/>
</svg>
