<svg width="32" height="32" viewBox="0 0 32 32" fill="none" xmlns="http://www.w3.org/2000/svg">
<rect width="32" height="32" rx="16" fill="#FF4800"/>
<path fill-rule="evenodd" clip-rule="evenodd" d="M12.6704 9.58495C12.8491 9.049 13.3506 8.6875 13.9156 8.6875H18.0844C18.6494 8.6875 19.1509 9.049 19.3295 9.58495L19.7804 10.9375H22C23.1391 10.9375 24.0625 11.8609 24.0625 13V21.25C24.0625 22.3891 23.1391 23.3125 22 23.3125H10C8.86092 23.3125 7.9375 22.3891 7.9375 21.25V13C7.9375 11.8609 8.86092 10.9375 10 10.9375H12.2196L12.6704 9.58495ZM13 17.5C13 15.843 14.3438 14.5 16.0011 14.5C17.6584 14.5 19.0022 15.843 19.0022 17.5C19.0022 19.157 17.6584 20.5 16.0011 20.5C14.3438 20.5 13 19.157 13 17.5ZM16 10.75C15.5858 10.75 15.25 11.0858 15.25 11.5C15.25 11.9142 15.5858 12.25 16 12.25C16.4142 12.25 16.7501 11.9142 16.7501 11.5C16.7501 11.0858 16.4142 10.75 16 10.75Z" fill="white"/>
</svg>
