<svg width="20" height="21" viewBox="0 0 20 21" fill="none" xmlns="http://www.w3.org/2000/svg">
<path d="M16.6667 3.41666H3.33334C2.41286 3.41666 1.66667 4.16285 1.66667 5.08332V15.9167C1.66667 16.8372 2.41286 17.5833 3.33334 17.5833H16.6667C17.5872 17.5833 18.3333 16.8372 18.3333 15.9167V5.08332C18.3333 4.16285 17.5872 3.41666 16.6667 3.41666Z" stroke="#FF4800" stroke-width="1.5" stroke-linejoin="round"/>
<path d="M4.16667 13.8333C5.02975 11.6824 8.2468 11.5409 9.16667 13.8333M8.125 8.62499C8.125 9.43041 7.47209 10.0833 6.66667 10.0833C5.86126 10.0833 5.20834 9.43041 5.20834 8.62499C5.20834 7.81957 5.86126 7.16666 6.66667 7.16666C7.47209 7.16666 8.125 7.81957 8.125 8.62499Z" stroke="#FF4800" stroke-width="1.5" stroke-linecap="round"/>
<path d="M11.6667 7.58334H15.8333M11.6667 10.5H15.8333M11.6667 13.4167H13.75" stroke="#FF4800" stroke-width="1.5" stroke-linecap="round" stroke-linejoin="round"/>
</svg>
