<svg width="25" height="25" viewBox="0 0 25 25" fill="none" xmlns="http://www.w3.org/2000/svg">
<g clip-path="url(#clip0_232_6801)">
<mask id="mask0_232_6801" style="mask-type:luminance" maskUnits="userSpaceOnUse" x="0" y="0" width="24" height="25">
<path d="M0 0.5H24V24.5H0V0.5Z" fill="white"/>
</mask>
<g mask="url(#mask0_232_6801)">
<mask id="mask1_232_6801" style="mask-type:luminance" maskUnits="userSpaceOnUse" x="0" y="0" width="24" height="25">
<path d="M0 0.5H24V24.5H0V0.5Z" fill="white"/>
</mask>
<g mask="url(#mask1_232_6801)">
<path d="M22.5 11H14.4375C14.3982 11 14.3591 10.9969 14.3202 10.9908C14.2813 10.9846 14.2432 10.9755 14.2057 10.9633C14.1683 10.9511 14.1321 10.9361 14.097 10.9183C14.0619 10.9004 14.0285 10.8799 13.9967 10.8568C13.9648 10.8337 13.935 10.8082 13.9072 10.7804C13.8794 10.7525 13.8539 10.7227 13.8308 10.6909C13.8077 10.659 13.7872 10.6256 13.7693 10.5905C13.7514 10.5555 13.7364 10.5192 13.7242 10.4818L11.2867 2.98182L12 2.75001L12.7133 2.98182L10.2758 10.4818C10.2636 10.5192 10.2486 10.5555 10.2307 10.5905C10.2129 10.6256 10.1924 10.659 10.1692 10.6909C10.1461 10.7227 10.1206 10.7525 10.0928 10.7804C10.065 10.8082 10.0352 10.8337 10.0033 10.8568C9.97149 10.8799 9.93804 10.9004 9.90298 10.9183C9.86791 10.9361 9.83167 10.9511 9.79425 10.9633C9.75683 10.9755 9.71869 10.9846 9.67982 10.9908C9.64095 10.9969 9.60185 11 9.5625 11H1.5V10.25L1.92415 9.63146L8.48665 14.1315C8.5201 14.1544 8.55149 14.1799 8.58081 14.2079C8.61013 14.236 8.637 14.2662 8.66141 14.2986C8.68583 14.3309 8.70748 14.3651 8.72635 14.401C8.74523 14.4369 8.76109 14.4741 8.77393 14.5126C8.78677 14.5511 8.79643 14.5903 8.8029 14.6304C8.80937 14.6704 8.81257 14.7107 8.8125 14.7513C8.81243 14.7918 8.8091 14.8321 8.80249 14.8722C8.79588 14.9122 8.78609 14.9514 8.77312 14.9898L6.24187 22.4898L5.53125 22.25L5.09117 21.6427L11.5599 16.9552C11.5917 16.9321 11.6251 16.9117 11.6601 16.8939C11.6951 16.8761 11.7313 16.8612 11.7687 16.8491C11.806 16.837 11.8441 16.8278 11.8829 16.8217C11.9217 16.8156 11.9607 16.8125 12 16.8125C12.0393 16.8125 12.0783 16.8156 12.1171 16.8217C12.1559 16.8278 12.194 16.837 12.2313 16.8491C12.2687 16.8612 12.3049 16.8761 12.3399 16.8939C12.3749 16.9117 12.4083 16.9321 12.4401 16.9552L18.9088 21.6427L18.4688 22.25L17.7581 22.4898L15.2269 14.9898C15.2139 14.9514 15.2041 14.9122 15.1975 14.8722C15.1909 14.8321 15.1876 14.7918 15.1875 14.7513C15.1874 14.7107 15.1906 14.6704 15.1971 14.6304C15.2036 14.5903 15.2132 14.5511 15.2261 14.5126C15.2389 14.4741 15.2548 14.4369 15.2737 14.401C15.2926 14.3651 15.3142 14.3309 15.3386 14.2986C15.363 14.2662 15.3899 14.236 15.4192 14.2079C15.4485 14.1799 15.4799 14.1544 15.5134 14.1315L22.0759 9.63146L22.5 10.25V11ZM22.5 9.50001C22.5609 9.50001 22.6209 9.50732 22.68 9.52194C22.7391 9.53656 22.7957 9.55806 22.8496 9.58645C22.9035 9.61484 22.9531 9.64928 22.9986 9.68978C23.0441 9.73027 23.0841 9.77563 23.1185 9.82586C23.1464 9.86648 23.17 9.90942 23.1894 9.95469C23.2088 9.99995 23.2236 10.0467 23.2338 10.0949C23.244 10.143 23.2494 10.1917 23.2499 10.241C23.2505 10.2902 23.2463 10.3391 23.2373 10.3875C23.2283 10.4359 23.2146 10.4829 23.1963 10.5287C23.178 10.5744 23.1555 10.6179 23.1286 10.6592C23.1017 10.7004 23.0711 10.7387 23.0367 10.7739C23.0023 10.8092 22.9648 10.8407 22.9241 10.8686L16.3616 15.3685L15.9375 14.75L16.6481 14.5102L19.1794 22.0102C19.1985 22.0669 19.2107 22.125 19.2159 22.1846C19.2211 22.2442 19.2192 22.3036 19.2102 22.3627C19.2013 22.4218 19.1854 22.4791 19.1627 22.5344C19.14 22.5897 19.1112 22.6416 19.0761 22.6901C19.0472 22.73 19.0146 22.7666 18.9785 22.8001C18.9424 22.8336 18.9034 22.8632 18.8614 22.889C18.8195 22.9148 18.7754 22.9362 18.7292 22.9533C18.683 22.9704 18.6356 22.9829 18.587 22.9906C18.5384 22.9984 18.4895 23.0014 18.4402 22.9995C18.391 22.9976 18.3425 22.9909 18.2946 22.9795C18.2467 22.968 18.2003 22.952 18.1556 22.9315C18.1109 22.911 18.0686 22.8862 18.0287 22.8573L11.5599 18.1698L12 17.5625L12.4401 18.1698L5.97133 22.8573C5.92289 22.8924 5.871 22.9213 5.81565 22.944C5.7603 22.9667 5.70305 22.9825 5.64391 22.9915C5.58477 23.0005 5.52541 23.0024 5.46582 22.9971C5.40623 22.9919 5.34809 22.9797 5.29142 22.9606C5.24476 22.9449 5.20008 22.9247 5.15739 22.9002C5.1147 22.8756 5.07481 22.8471 5.03773 22.8147C5.00065 22.7823 4.96709 22.7466 4.93704 22.7076C4.90699 22.6686 4.88103 22.627 4.85918 22.5829C4.83732 22.5388 4.81998 22.4929 4.80715 22.4454C4.79432 22.3979 4.78625 22.3495 4.78294 22.3004C4.77963 22.2513 4.78115 22.2023 4.7875 22.1534C4.79384 22.1046 4.80488 22.0569 4.82063 22.0102L7.35188 14.5102L8.0625 14.75L7.63835 15.3685L1.07585 10.8686C1.02562 10.8341 0.98026 10.7941 0.939767 10.7486C0.899274 10.7031 0.864833 10.6535 0.836445 10.5996C0.808058 10.5457 0.786553 10.4892 0.771932 10.4301C0.757311 10.3709 0.75 10.3109 0.75 10.25C0.75 10.2008 0.754804 10.152 0.764411 10.1037C0.774018 10.0554 0.788245 10.0085 0.80709 9.963C0.825936 9.9175 0.849039 9.87427 0.876398 9.83333C0.903757 9.79238 0.934848 9.7545 0.96967 9.71968C1.00449 9.68486 1.04238 9.65377 1.08332 9.62641C1.12427 9.59905 1.16749 9.57594 1.21299 9.5571C1.25848 9.53825 1.30538 9.52402 1.35368 9.51442C1.40198 9.50481 1.45075 9.50001 1.5 9.50001H9.5625V10.25L8.84922 10.0182L11.2867 2.51819C11.305 2.46192 11.3296 2.40856 11.3605 2.35811C11.3914 2.30766 11.4278 2.26152 11.4697 2.21968C11.5115 2.17784 11.5576 2.14146 11.6081 2.11054C11.6586 2.07962 11.7119 2.05502 11.7682 2.03673C11.815 2.02151 11.8629 2.01101 11.9118 2.00521C11.9607 1.99942 12.0097 1.99846 12.0588 2.00232C12.1079 2.00618 12.1561 2.01479 12.2035 2.02815C12.2509 2.04152 12.2965 2.05937 12.3404 2.08173C12.3843 2.10408 12.4256 2.1305 12.4643 2.16099C12.503 2.19147 12.5383 2.22544 12.5703 2.26288C12.6022 2.30033 12.6302 2.34053 12.6543 2.3835C12.6784 2.42646 12.698 2.47136 12.7133 2.51819L15.1508 10.0182L14.4375 10.25V9.50001H22.5Z" fill="#FF4800"/>
</g>
</g>
</g>
<defs>
<clipPath id="clip0_232_6801">
<rect width="24" height="24" fill="white" transform="translate(0.5 0.5)"/>
</clipPath>
</defs>
</svg>
