<svg width="24" height="25" viewBox="0 0 24 25" fill="none" xmlns="http://www.w3.org/2000/svg">
<mask id="mask0_133_1831" style="mask-type:luminance" maskUnits="userSpaceOnUse" x="0" y="0" width="24" height="25">
<path d="M0 0.5H24V24.5H0V0.5Z" fill="white"/>
</mask>
<g mask="url(#mask0_133_1831)">
<path d="M5.25 9.17188C5.25 7.28203 6.78203 5.75 8.67188 5.75H19.0781C20.968 5.75 22.5 7.28203 22.5 9.17188V19.5781C22.5 21.468 20.968 23 19.0781 23H8.67188C6.78203 23 5.25 21.468 5.25 19.5781V9.17188ZM8.67188 7.25C7.61045 7.25 6.75 8.11045 6.75 9.17188V19.5781C6.75 20.6395 7.61045 21.5 8.67188 21.5H19.0781C20.1395 21.5 21 20.6395 21 19.5781V9.17188C21 8.11045 20.1395 7.25 19.0781 7.25H8.67188Z" fill="white"/>
<path fill-rule="evenodd" clip-rule="evenodd" d="M17.25 5.36893L17.2267 6.48438C17.2181 6.8985 17.5468 7.24121 17.9609 7.24984C18.3751 7.25846 18.7178 6.92974 18.7264 6.51562L18.7498 5.39062C18.7499 5.3847 18.75 5.37878 18.75 5.37287C18.7473 4.44257 18.4171 3.64851 17.7593 2.9907C17.1015 2.33288 16.3074 2.00265 15.3771 2L5.25 2C4.21487 2.00306 3.33185 2.37004 2.60094 3.10094C1.87004 3.83185 1.50306 4.71413 1.5 5.74778L1.5 15.875C1.50265 16.8067 1.83288 17.6015 2.4907 18.2593C3.14852 18.9171 3.94258 19.2473 4.87287 19.25H6C6.41421 19.25 6.75 18.9142 6.75 18.5C6.75 18.0858 6.41421 17.75 6 17.75H4.87713C4.35938 17.7485 3.91746 17.5647 3.55136 17.1986C3.18526 16.8325 3.00147 16.3913 3 15.875L3 5.75222C3.00183 5.13105 3.22237 4.60084 3.66161 4.16161C4.10084 3.72237 4.63031 3.50183 5.25 3.5L15.3729 3.5C15.8906 3.50147 16.3325 3.68526 16.6986 4.05136C17.0628 4.41553 17.2466 4.85472 17.25 5.36893Z" fill="white"/>
</g>
</svg>
