<svg width="24" height="24" viewBox="0 0 24 24" fill="none" xmlns="http://www.w3.org/2000/svg">
<path fill-rule="evenodd" clip-rule="evenodd" d="M19.884 4.11599C20.3721 4.60415 20.3721 5.39561 19.884 5.88376L5.88401 19.8838C5.39585 20.3719 4.60439 20.3719 4.11624 19.8838C3.62808 19.3956 3.62808 18.6041 4.11624 18.116L18.1162 4.11599C18.6044 3.62784 19.3958 3.62784 19.884 4.11599Z" fill="#FF4800"/>
<path fill-rule="evenodd" clip-rule="evenodd" d="M4.11624 4.11599C4.60439 3.62784 5.39585 3.62784 5.88401 4.11599L19.884 18.116C20.3721 18.6041 20.3721 19.3956 19.884 19.8838C19.3958 20.3719 18.6044 20.3719 18.1162 19.8838L4.11624 5.88376C3.62808 5.39561 3.62808 4.60415 4.11624 4.11599Z" fill="#FF4800"/>
</svg>
