<svg width="24" height="24" viewBox="0 0 24 24" fill="none" xmlns="http://www.w3.org/2000/svg">
<path fill-rule="evenodd" clip-rule="evenodd" d="M2.5294 2.52946C3.0336 2.02526 3.7918 1.74408 4.5405 1.57214C5.3138 1.39452 6.1991 1.30732 7.0691 1.27122C8.8116 1.19893 10.5921 1.32833 11.5022 1.41196C12.0702 1.46415 12.5946 1.6965 13.0168 2.05937C16.1691 4.76869 19.0388 7.57718 21.7845 10.6437C23.0408 12.0468 23.0541 14.1417 21.9228 15.6029C20.0571 18.0126 18.0125 20.0572 15.6028 21.9229C14.1417 23.0542 12.0467 23.0409 10.6436 21.7846C7.5771 19.0389 4.7686 16.1692 2.0593 13.0169C1.6964 12.5946 1.4641 12.0702 1.4119 11.5023C1.3283 10.5922 1.1989 8.81165 1.2712 7.06913C1.3073 6.19913 1.3945 5.31387 1.5721 4.54052C1.744 3.7919 2.0252 3.03366 2.5294 2.52946ZM13.0038 8.00006C13.5561 8.00006 14.0038 8.44778 14.0038 9.00006C14.0038 9.55235 13.5561 10.0001 13.0038 10.0001H12.9889C12.4366 10.0001 11.9889 9.55235 11.9889 9.00006C11.9889 8.44778 12.4366 8.00006 12.9889 8.00006H13.0038ZM13.0001 16.0001C13.5524 16.0001 14.0001 16.4478 14.0001 17.0001C14.0001 17.5523 13.5524 18.0001 13.0001 18.0001H12.9852C12.4329 18.0001 11.9852 17.5523 11.9852 17.0001C11.9852 16.4478 12.4329 16.0001 12.9852 16.0001H13.0001ZM17.9999 13.0001C17.9999 12.4478 17.5522 12.0001 16.9999 12.0001H8.9999C8.4477 12.0001 7.9999 12.4478 7.9999 13.0001C7.9999 13.5523 8.4477 14.0001 8.9999 14.0001H16.9999C17.5522 14.0001 17.9999 13.5523 17.9999 13.0001ZM6.4999 5.00006C5.6715 5.00006 4.9999 5.67163 4.9999 6.50006C4.9999 7.32849 5.6715 8.00006 6.4999 8.00006C7.3284 8.00006 7.9999 7.32849 7.9999 6.50006C7.9999 5.67163 7.3284 5.00006 6.4999 5.00006Z" fill="#FF4800"/>
</svg>
