<svg width="25" height="25" viewBox="0 0 25 25" fill="none" xmlns="http://www.w3.org/2000/svg">
<path d="M22.5 12.5C22.5 18.0228 18.0228 22.5 12.5 22.5C6.97715 22.5 2.5 18.0228 2.5 12.5C2.5 6.97715 6.97715 2.5 12.5 2.5C18.0228 2.5 22.5 6.97715 22.5 12.5Z" stroke="#FF4800" stroke-width="1.5" stroke-linejoin="round"/>
<path d="M12.5 7V8.5M12.5 8.5C10.9812 8.5 9.75 9.42865 9.75 10.5741C9.75 11.7196 10.5 12.3519 12.5 12.3519C14.5 12.3519 15.5 12.9445 15.5 14.426C15.5 15.9075 14.1569 16.5 12.5 16.5M12.5 8.5C14.0188 8.5 15.25 9.42865 15.25 10.5741M12.5 16.5V18M12.5 16.5C10.8431 16.5 9.5 15.5715 9.5 14.426" stroke="#FF4800" stroke-width="1.5" stroke-linejoin="round"/>
</svg>
