<svg width="38" height="38" viewBox="0 0 38 38" fill="none" xmlns="http://www.w3.org/2000/svg">
<rect x="0.702148" y="0.371582" width="36.7021" height="36.7021" rx="18.3511" fill="white"/>
<path fill-rule="evenodd" clip-rule="evenodd" d="M17.5532 17.7334C17.5532 16.905 18.2247 16.2334 19.0532 16.2334C19.8816 16.2334 20.5533 16.905 20.5533 17.7334C20.5533 18.5618 19.8817 19.2334 19.0533 19.2334C18.2248 19.2334 17.5532 18.5618 17.5532 17.7334Z" fill="#757575"/>
<path fill-rule="evenodd" clip-rule="evenodd" d="M17.5532 23.7334C17.5532 22.905 18.2248 22.2334 19.0532 22.2334C19.8816 22.2334 20.5533 22.905 20.5533 23.7334C20.5533 24.5618 19.8817 25.2334 19.0533 25.2334C18.2249 25.2334 17.5532 24.5618 17.5532 23.7334Z" fill="#757575"/>
<path fill-rule="evenodd" clip-rule="evenodd" d="M17.5532 11.7334C17.5532 10.905 18.2248 10.2334 19.0532 10.2334C19.8816 10.2334 20.5533 10.905 20.5533 11.7334C20.5533 12.5618 19.8817 13.2334 19.0533 13.2334C18.2249 13.2334 17.5532 12.5618 17.5532 11.7334Z" fill="#757575"/>
</svg>
