<svg width="39" height="40" viewBox="0 0 39 40" fill="none" xmlns="http://www.w3.org/2000/svg">
<path fill-rule="evenodd" clip-rule="evenodd" d="M19.5 2.53125C9.85228 2.53125 2.03125 10.3523 2.03125 20C2.03125 29.6478 9.85228 37.4688 19.5 37.4688C29.1478 37.4688 36.9688 29.6478 36.9688 20C36.9688 10.3523 29.1478 2.53125 19.5 2.53125ZM21.125 11.875C21.125 10.9775 20.3975 10.25 19.5 10.25C18.6025 10.25 17.875 10.9775 17.875 11.875V16.75H15.4375C14.7803 16.75 14.1877 17.146 13.9362 17.7531C13.6847 18.3604 13.8237 19.0593 14.2884 19.524L18.351 23.5865C18.9855 24.2213 20.0145 24.2213 20.649 23.5865L24.7115 19.524C25.1763 19.0593 25.3154 18.3604 25.0638 17.7531C24.8123 17.146 24.2198 16.75 23.5625 16.75H21.125V11.875ZM14.6091 25.6875C13.7117 25.6875 12.9841 26.415 12.9841 27.3125C12.9841 28.21 13.7117 28.9375 14.6091 28.9375H24.3591C25.2566 28.9375 25.9841 28.21 25.9841 27.3125C25.9841 26.415 25.2566 25.6875 24.3591 25.6875H14.6091Z" fill="#FF4800"/>
</svg>
