<svg width="25" height="25" viewBox="0 0 25 25" fill="none" xmlns="http://www.w3.org/2000/svg">
<path d="M21.8387 11.0988H17.83C17.6157 11.0991 17.4104 11.1843 17.2589 11.3358C17.1074 11.4873 17.0221 11.6926 17.0219 11.9069V20.4156C17.0219 20.8611 17.3845 21.2238 17.8296 21.2238H21.8384C22.0527 21.2236 22.2581 21.1384 22.4097 20.9869C22.5613 20.8354 22.6466 20.6299 22.6469 20.4156V11.9069C22.6466 11.6926 22.5613 11.4873 22.4098 11.3358C22.2583 11.1843 22.053 11.0991 21.8387 11.0988ZM20.3969 20.0988H19.2719C19.1724 20.0988 19.077 20.0592 19.0067 19.9889C18.9364 19.9186 18.8969 19.8232 18.8969 19.7238C18.8969 19.6243 18.9364 19.5289 19.0067 19.4586C19.077 19.3883 19.1724 19.3488 19.2719 19.3488H20.3969C20.4963 19.3488 20.5917 19.3883 20.662 19.4586C20.7323 19.5289 20.7719 19.6243 20.7719 19.7238C20.7719 19.8232 20.7323 19.9186 20.662 19.9889C20.5917 20.0592 20.4963 20.0988 20.3969 20.0988Z" fill="#FF4800"/>
<path d="M20.7719 10.3488V6.14089C20.7709 5.76535 20.6217 5.40539 20.3567 5.13926C20.2255 5.00712 20.0693 4.90235 19.8972 4.83102C19.7251 4.7597 19.5406 4.72324 19.3544 4.72376H3.81398C3.43825 4.72416 3.07803 4.87359 2.81236 5.13927C2.54668 5.40494 2.39725 5.76516 2.39685 6.14089V15.3066C2.39774 15.6821 2.54679 16.0421 2.8116 16.3083C3.07795 16.5734 3.43816 16.7227 3.81398 16.7238H16.2719V11.9069C16.2722 11.4938 16.4365 11.0978 16.7285 10.8057C17.0206 10.5136 17.4165 10.3493 17.8296 10.3488H20.7719ZM12.1469 15.3936H11.0219C10.9224 15.3936 10.827 15.3541 10.7567 15.2838C10.6864 15.2135 10.6469 15.1181 10.6469 15.0186C10.6469 14.9192 10.6864 14.8238 10.7567 14.7535C10.827 14.6831 10.9224 14.6436 11.0219 14.6436H12.1469C12.2463 14.6436 12.3417 14.6831 12.412 14.7535C12.4823 14.8238 12.5219 14.9192 12.5219 15.0186C12.5219 15.1181 12.4823 15.2135 12.412 15.2838C12.3417 15.3541 12.2463 15.3936 12.1469 15.3936ZM15.5219 20.4738H14.0219V17.4738H9.14685V20.4738H7.64685C7.54739 20.4738 7.45201 20.5133 7.38169 20.5836C7.31136 20.6539 7.27185 20.7493 7.27185 20.8488C7.27185 20.9482 7.31136 21.0436 7.38169 21.1139C7.45201 21.1843 7.54739 21.2238 7.64685 21.2238H15.5219C15.6213 21.2238 15.7167 21.1843 15.787 21.1139C15.8573 21.0436 15.8969 20.9482 15.8969 20.8488C15.8969 20.7493 15.8573 20.6539 15.787 20.5836C15.7167 20.5133 15.6213 20.4738 15.5219 20.4738Z" fill="#FF4800"/>
</svg>
