<svg width="18" height="18" viewBox="0 0 18 18" fill="none" xmlns="http://www.w3.org/2000/svg">
<path d="M14.08 6.48742C14.5591 7.26916 14.9962 8.12707 15.2047 9.01203C15.2801 9.33223 15.3256 9.65598 15.3323 9.98093C15.3357 10.1412 15.5566 10.1771 15.6111 10.0262C16.0033 8.94017 16.0447 7.76096 15.7606 6.62439C15.3099 4.8213 14.2006 3.55722 12.973 2.23868C12.6312 1.87165 12.1539 1.41778 11.89 0.916948C11.8214 0.786765 11.6249 0.831378 11.6196 0.978437C11.6055 1.36639 11.6614 1.74024 11.7646 2.10727C11.9556 2.78687 12.3089 3.443 12.6812 4.12162C13.2217 5.10722 13.4956 5.53325 14.08 6.48742Z" fill="#FFD250"/>
<path d="M15.6111 10.0263C15.5567 10.177 15.3354 10.1411 15.3322 9.981C15.3253 9.65679 15.28 9.33325 15.205 9.01375C15.2655 8.35011 15.2104 7.67493 15.0449 7.01385C14.5943 5.21062 13.4851 3.94672 12.2574 2.62815C12.1089 2.4684 11.9347 2.29209 11.7633 2.10298C11.6608 1.73746 11.6057 1.36498 11.6195 0.978474C11.6249 0.831416 11.8213 0.786837 11.8898 0.91688C12.1539 1.41786 12.6313 1.87176 12.9729 2.23872C14.2005 3.55729 15.3097 4.82116 15.7607 6.62443C16.0447 7.76117 16.0034 8.94027 15.6111 10.0263Z" fill="#FFC433"/>
<path d="M4.08017 3.91026C3.78015 4.31726 3.60788 4.45596 3.33936 4.88437C3.13197 5.21526 2.90602 5.84554 2.94754 6.30616C2.95506 6.38962 2.84826 6.43174 2.79591 6.36631C2.52271 6.02477 2.28632 5.59526 2.16436 5.21677L2.16313 5.21294C2.00356 4.71495 2.01228 4.15277 2.24723 3.68558C2.54746 3.08855 3.15609 2.72458 3.7008 2.33748C3.72738 2.3186 3.75395 2.2994 3.78046 2.27992C4.15122 2.00764 4.51161 1.67682 4.70528 1.27794C4.74557 1.195 4.86974 1.22496 4.8676 1.31714C4.8464 2.21527 4.57218 3.24282 4.08017 3.91026Z" fill="#FFD250"/>
<path d="M4.86775 1.31717C4.84637 2.21517 4.57215 3.24286 4.08021 3.91012C3.78026 4.3173 3.60785 4.45603 3.33944 4.88458C3.13187 5.2153 2.90621 5.84561 2.94748 6.30602C2.95507 6.38969 2.84823 6.43174 2.79606 6.36617C2.52293 6.02495 2.28651 5.59664 2.16479 5.21808C2.23507 5.02102 2.32117 4.84148 2.40375 4.71C2.67217 4.28144 2.84461 4.14272 3.14453 3.73592C3.43432 3.34252 3.64846 2.82369 3.77994 2.28031C4.15053 2.00754 4.51162 1.67731 4.70508 1.27811C4.74569 1.19511 4.86993 1.22482 4.86775 1.31717Z" fill="#FFC433"/>
<path d="M12.7721 8.15654C13.2569 9.13346 13.5757 10.1788 13.6355 11.2883C13.7203 12.8619 13.3496 14.5004 12.4053 15.7826C11.7677 16.6484 10.8843 17.3018 9.87432 17.6688C9.22038 17.9065 8.56767 17.9765 7.87966 17.9968L7.83618 17.998C4.5503 18.0852 1.81911 15.2964 2.07136 11.7005C2.15907 10.4502 2.50958 9.21376 3.03763 8.09973C3.10608 7.95534 3.28031 7.89428 3.42312 7.96596C3.81792 8.16414 4.51349 8.71282 4.57659 10.1321C4.6217 11.1438 5.03152 11.9244 5.8509 12.229C6.19846 12.3582 6.53466 12.0173 6.39495 11.6738C5.71678 10.0068 4.46568 5.58571 7.8546 1.14934C8.12463 0.795843 8.42409 0.442277 8.75569 0.0899762C8.92384 -0.0886879 9.22446 0.0149176 9.24844 0.259113C9.3267 1.05674 9.60257 2.07588 9.76864 2.6914C9.90537 3.19807 10.0862 3.69268 10.3048 4.16979C10.9581 5.5958 12.0749 6.75159 12.7721 8.15654Z" fill="#FF982A"/>
<path d="M12.4054 15.7827C11.7678 16.6485 10.8843 17.3019 9.87439 17.6689C9.22091 17.9065 8.5683 17.9765 7.88075 17.9968C8.04813 17.9561 8.21314 17.9063 8.37505 17.8475C9.38498 17.4805 10.2685 16.827 10.9061 15.9613C11.8504 14.6793 12.221 13.0405 12.1362 11.4669C12.0765 10.3574 11.7577 9.31229 11.273 8.3353C10.5757 6.93014 9.45888 5.77459 8.80575 4.34844C8.58693 3.87137 8.4062 3.3769 8.26926 2.87012C8.15008 2.42747 7.97342 1.77634 7.85498 1.14894C8.12449 0.795377 8.4243 0.441986 8.75575 0.0898964C8.92384 -0.0886973 9.22449 0.0149081 9.2484 0.259068C9.32666 1.05673 9.60267 2.07608 9.76857 2.69156C9.9055 3.19799 10.0862 3.69281 10.3047 4.16988C10.9582 5.59568 12.075 6.75162 12.7723 8.15674C13.257 9.13335 13.5758 10.1788 13.6355 11.2884C13.7203 12.8619 13.3498 14.5003 12.4054 15.7827Z" fill="#FF8700"/>
<path d="M6.48885 16.3849C6.46956 16.3753 6.45036 16.3656 6.43126 16.3556C5.82679 16.0393 5.41767 15.5568 5.14514 14.9259C4.94444 14.4613 4.86231 13.9424 4.91079 13.4378C4.9168 13.3753 4.99323 13.3486 5.03799 13.3927C5.18438 13.5368 5.34283 13.6704 5.5049 13.7949C6.05126 14.2143 6.81123 14.5161 7.4548 14.1231C8.07239 13.746 8.32186 12.8958 8.42571 12.2256C8.46196 11.9918 8.47237 11.7521 8.47289 11.512C8.47328 11.3302 8.46801 11.1482 8.46396 10.9685C8.46266 10.9108 8.52503 10.874 8.57502 10.9028C9.4946 11.4315 10.4205 11.9667 10.6926 13.085C11.1663 15.0323 9.52498 16.8218 7.55261 16.6753C7.18347 16.6478 6.82065 16.5494 6.48885 16.3849Z" fill="#FFD250"/>
<path d="M7.55263 16.6753C7.18349 16.6477 6.82054 16.5496 6.48873 16.3847C6.4696 16.3753 6.45056 16.3657 6.43164 16.3558L6.43491 16.3557C8.24349 16.2792 9.66464 14.5895 9.22006 12.7601C9.0922 12.2353 8.82065 11.8393 8.47288 11.5114C8.47323 11.3299 8.46803 11.1481 8.46406 10.9685C8.46262 10.9109 8.52491 10.8739 8.57491 10.9029C9.49463 11.4314 10.4205 11.9668 10.6926 13.085C11.1664 15.0321 9.52507 16.8216 7.55263 16.6753Z" fill="#FFC433"/>
<path d="M11.0304 3.1468C11.1017 3.1468 11.172 3.11783 11.2224 3.0671C11.2856 3.00389 11.3149 2.90971 11.2966 2.82189C11.2704 2.69603 11.1591 2.60343 11.0304 2.60343C10.8808 2.60343 10.7587 2.72633 10.7587 2.87512C10.7587 3.02446 10.8796 3.1468 11.0304 3.1468ZM13.9837 1.47551C14.055 1.47551 14.1253 1.44654 14.1757 1.39581C14.2389 1.3326 14.2682 1.23842 14.2499 1.1506C14.2237 1.02474 14.1124 0.932136 13.9837 0.932136C13.8341 0.932136 13.712 1.05504 13.712 1.20382C13.712 1.35317 13.8329 1.47551 13.9837 1.47551ZM15.0216 2.5296C15.093 2.5296 15.1632 2.50063 15.2136 2.4499C15.2768 2.38669 15.3062 2.29251 15.2878 2.20469C15.2616 2.07883 15.1503 1.98623 15.0216 1.98623C14.872 1.98623 14.7499 2.10913 14.7499 2.25791C14.7499 2.40726 14.8708 2.5296 15.0216 2.5296ZM4.86767 5.43435C4.93903 5.43435 5.00928 5.40538 5.05965 5.35465C5.12286 5.29144 5.15222 5.19726 5.1339 5.10944C5.10764 4.98358 4.99634 4.89098 4.86767 4.89098C4.71811 4.89098 4.59598 5.01388 4.59598 5.16266C4.59598 5.31204 4.71685 5.43435 4.86767 5.43435ZM4.35133 6.23567C4.20177 6.23567 4.07964 6.35857 4.07964 6.50735C4.07964 6.65673 4.20051 6.77904 4.35133 6.77904C4.42269 6.77904 4.49294 6.75007 4.54331 6.69934C4.60653 6.63613 4.63588 6.54195 4.61756 6.45413C4.5913 6.32823 4.47996 6.23567 4.35133 6.23567ZM3.23775 1.32662C3.30912 1.32662 3.37936 1.29766 3.42974 1.24692C3.49295 1.18371 3.52231 1.08953 3.50399 1.00171C3.47773 0.87585 3.36642 0.783249 3.23775 0.783249C3.0882 0.783249 2.96606 0.906155 2.96606 1.05494C2.96606 1.20432 3.08693 1.32662 3.23775 1.32662Z" fill="#FF982A"/>
</svg>
