<svg width="18" height="18" viewBox="0 0 18 18" fill="none" xmlns="http://www.w3.org/2000/svg">
<path d="M14.0803 6.48728C14.5593 7.26902 14.9965 8.12694 15.2049 9.01189C15.2804 9.33209 15.3259 9.65585 15.3326 9.9808C15.3359 10.1411 15.5569 10.1769 15.6113 10.0261C16.0035 8.94003 16.0449 7.76082 15.7608 6.62425C15.3101 4.82116 14.2009 3.55708 12.9732 2.23855C12.6315 1.87151 12.1541 1.41765 11.8902 0.916811C11.8216 0.786628 11.6251 0.831241 11.6198 0.978299C11.6058 1.36625 11.6616 1.7401 11.7648 2.10713C11.9559 2.78674 12.3092 3.44286 12.6814 4.12148C13.222 5.10708 13.4959 5.53311 14.0803 6.48728Z" fill="#FFD250"/>
<path d="M15.6113 10.0261C15.557 10.1768 15.3357 10.1409 15.3324 9.98084C15.3255 9.65663 15.2803 9.33308 15.2053 9.01358C15.2658 8.34994 15.2107 7.67476 15.0451 7.01369C14.5945 5.21045 13.4853 3.94655 12.2577 2.62798C12.1092 2.46823 11.9349 2.29192 11.7636 2.10281C11.661 1.73729 11.606 1.36481 11.6198 0.978306C11.6252 0.831248 11.8215 0.78667 11.89 0.916713C12.1541 1.41769 12.6315 1.87159 12.9731 2.23855C14.2008 3.55712 15.3099 4.82099 15.761 6.62426C16.045 7.761 16.0036 8.94011 15.6113 10.0261Z" fill="#FFC433"/>
<path d="M4.08017 3.9104C3.78015 4.3174 3.60788 4.45609 3.33936 4.88451C3.13197 5.2154 2.90602 5.84568 2.94754 6.3063C2.95506 6.38976 2.84826 6.43187 2.79591 6.36645C2.52271 6.02491 2.28632 5.5954 2.16436 5.21691L2.16313 5.21308C2.00356 4.71509 2.01228 4.15291 2.24723 3.68571C2.54746 3.08869 3.15609 2.72472 3.7008 2.33761C3.72738 2.31873 3.75395 2.29954 3.78046 2.28006C4.15122 2.00778 4.51161 1.67696 4.70528 1.27807C4.74557 1.19514 4.86974 1.22509 4.8676 1.31727C4.8464 2.21541 4.57218 3.24296 4.08017 3.9104Z" fill="#FFD250"/>
<path d="M4.8675 1.31726C4.84613 2.21526 4.57191 3.24295 4.07997 3.91021C3.78002 4.31739 3.60761 4.45612 3.33919 4.88467C3.13163 5.21539 2.90596 5.84571 2.94723 6.30611C2.95483 6.38978 2.84799 6.43183 2.79582 6.36626C2.52269 6.02504 2.28626 5.59673 2.16455 5.21817C2.23483 5.02112 2.32093 4.84157 2.40351 4.71009C2.67193 4.28153 2.84437 4.14281 3.14429 3.73601C3.43408 3.34262 3.64821 2.82378 3.7797 2.2804C4.15028 2.00763 4.51137 1.6774 4.70484 1.27821C4.74544 1.1952 4.86968 1.22491 4.8675 1.31726Z" fill="#FFC433"/>
<path d="M12.7721 8.15651C13.2569 9.13343 13.5757 10.1787 13.6355 11.2882C13.7203 12.8618 13.3496 14.5004 12.4053 15.7826C11.7677 16.6483 10.8843 17.3018 9.87432 17.6688C9.22038 17.9064 8.56767 17.9764 7.87966 17.9967L7.83618 17.998C4.5503 18.0852 1.81911 15.2964 2.07136 11.7005C2.15907 10.4501 2.50958 9.21373 3.03763 8.0997C3.10608 7.95531 3.28031 7.89425 3.42312 7.96593C3.81792 8.16411 4.51349 8.71279 4.57659 10.1321C4.6217 11.1438 5.03152 11.9244 5.8509 12.229C6.19846 12.3582 6.53466 12.0173 6.39495 11.6738C5.71678 10.0068 4.46568 5.58568 7.8546 1.14931C8.12463 0.795813 8.42409 0.442246 8.75569 0.0899457C8.92384 -0.0887184 9.22446 0.014887 9.24844 0.259082C9.3267 1.05671 9.60257 2.07585 9.76864 2.69137C9.90537 3.19804 10.0862 3.69265 10.3048 4.16976C10.9581 5.59577 12.0749 6.75156 12.7721 8.15651Z" fill="#FF982A"/>
<path d="M12.4054 15.7827C11.7678 16.6485 10.8843 17.3019 9.87439 17.6689C9.22091 17.9065 8.5683 17.9765 7.88075 17.9968C8.04813 17.9561 8.21314 17.9063 8.37505 17.8475C9.38498 17.4805 10.2685 16.827 10.9061 15.9613C11.8504 14.6793 12.221 13.0405 12.1362 11.4669C12.0765 10.3574 11.7577 9.31229 11.273 8.3353C10.5757 6.93014 9.45888 5.77459 8.80575 4.34844C8.58693 3.87137 8.4062 3.3769 8.26926 2.87012C8.15008 2.42747 7.97342 1.77634 7.85498 1.14894C8.12449 0.795377 8.4243 0.441986 8.75575 0.0898964C8.92384 -0.0886973 9.22449 0.0149081 9.2484 0.259068C9.32666 1.05673 9.60267 2.07608 9.76857 2.69156C9.9055 3.19799 10.0862 3.69281 10.3047 4.16988C10.9582 5.59568 12.075 6.75162 12.7723 8.15674C13.257 9.13335 13.5758 10.1788 13.6355 11.2884C13.7203 12.8619 13.3498 14.5003 12.4054 15.7827Z" fill="#FF8700"/>
<path d="M6.48861 16.3847C6.46931 16.3751 6.45011 16.3654 6.43102 16.3554C5.82654 16.0391 5.41743 15.5566 5.1449 14.9257C4.94419 14.4611 4.86207 13.9422 4.91055 13.4376C4.91656 13.3751 4.99299 13.3484 5.03774 13.3925C5.18413 13.5366 5.34258 13.6702 5.50465 13.7947C6.05102 14.2141 6.81099 14.5159 7.45456 14.1229C8.07215 13.7458 8.32162 12.8956 8.42547 12.2254C8.46172 11.9916 8.47212 11.7519 8.47265 11.5118C8.47304 11.33 8.46776 11.148 8.46372 10.9683C8.46242 10.9106 8.52479 10.8738 8.57478 10.9026C9.49436 11.4313 10.4203 11.9665 10.6923 13.0848C11.1661 15.0321 9.52473 16.8216 7.55236 16.6751C7.18322 16.6476 6.82041 16.5492 6.48861 16.3847Z" fill="#FFD250"/>
<path d="M7.55263 16.675C7.18349 16.6475 6.82054 16.5494 6.48873 16.3845C6.4696 16.3751 6.45056 16.3654 6.43164 16.3556L6.43491 16.3554C8.24349 16.2789 9.66464 14.5892 9.22006 12.7599C9.0922 12.235 8.82065 11.839 8.47288 11.5112C8.47323 11.3297 8.46803 11.1479 8.46406 10.9682C8.46262 10.9107 8.52491 10.8737 8.57491 10.9027C9.49463 11.4312 10.4205 11.9666 10.6926 13.0848C11.1664 15.0319 9.52507 16.8214 7.55263 16.675Z" fill="#FFC433"/>
<path d="M11.0301 3.14676C11.1015 3.14676 11.1717 3.11779 11.2221 3.06706C11.2853 3.00385 11.3147 2.90966 11.2964 2.82184C11.2701 2.69598 11.1588 2.60338 11.0301 2.60338C10.8806 2.60338 10.7584 2.72629 10.7584 2.87507C10.7584 3.02441 10.8793 3.14676 11.0301 3.14676ZM13.9834 1.47546C14.0548 1.47546 14.125 1.4465 14.1754 1.39577C14.2386 1.33255 14.268 1.23837 14.2497 1.15055C14.2234 1.02469 14.1121 0.93209 13.9834 0.93209C13.8339 0.93209 13.7118 1.055 13.7118 1.20378C13.7118 1.35312 13.8326 1.47546 13.9834 1.47546ZM15.0214 2.52955C15.0927 2.52955 15.163 2.50059 15.2133 2.44986C15.2766 2.38664 15.3059 2.29246 15.2876 2.20464C15.2613 2.07878 15.15 1.98618 15.0214 1.98618C14.8718 1.98618 14.7497 2.10909 14.7497 2.25787C14.7497 2.40721 14.8705 2.52955 15.0214 2.52955ZM4.86742 5.4343C4.93879 5.4343 5.00903 5.40534 5.05941 5.35461C5.12262 5.29139 5.15198 5.19721 5.13366 5.10939C5.1074 4.98353 4.99609 4.89093 4.86742 4.89093C4.71787 4.89093 4.59573 5.01384 4.59573 5.16262C4.59573 5.312 4.7166 5.4343 4.86742 5.4343ZM4.35108 6.23562C4.20153 6.23562 4.07939 6.35853 4.07939 6.50731C4.07939 6.65669 4.20026 6.779 4.35108 6.779C4.42245 6.779 4.49269 6.75003 4.54307 6.6993C4.60628 6.63609 4.63564 6.5419 4.61732 6.45408C4.59106 6.32819 4.47972 6.23562 4.35108 6.23562ZM3.23751 1.32658C3.30887 1.32658 3.37912 1.29761 3.4295 1.24688C3.49271 1.18367 3.52206 1.08948 3.50375 1.00166C3.47748 0.875805 3.36618 0.783203 3.23751 0.783203C3.08795 0.783203 2.96582 0.906109 2.96582 1.05489C2.96582 1.20427 3.08669 1.32658 3.23751 1.32658Z" fill="#FF982A"/>
</svg>
