<svg width="25" height="25" viewBox="0 0 25 25" fill="none" xmlns="http://www.w3.org/2000/svg">
<g clip-path="url(#clip0_245_2169)">
<path d="M12.0401 7.37373H23.2401C23.4611 7.37373 23.6401 7.55282 23.6401 7.77373V8.17373C23.6401 8.39465 23.4611 8.57373 23.2401 8.57373H12.0401C11.8192 8.57373 11.6401 8.39465 11.6401 8.17373V7.77373C11.6401 7.55282 11.8192 7.37373 12.0401 7.37373Z" fill="#FF4800"/>
<path d="M12.9769 5.99494C13.0099 5.92834 13.0609 5.8723 13.1241 5.8332C13.1873 5.79411 13.2602 5.77351 13.3345 5.77374H21.9457C22.02 5.77351 22.0929 5.79411 22.1561 5.8332C22.2193 5.8723 22.2703 5.92834 22.3033 5.99494L22.5929 6.57374H12.6873L12.9769 5.99494ZM20.9281 24.1737H15.3497C15.692 23.8745 15.9663 23.5055 16.1544 23.0916C16.3424 22.6777 16.4398 22.2284 16.4401 21.7737V21.3737C16.4395 21.199 16.4005 21.0265 16.3258 20.8685C16.2512 20.7105 16.1427 20.5708 16.0081 20.4593C16.2864 20.1648 16.4411 19.7747 16.4401 19.3695C16.4391 18.9643 16.2826 18.5749 16.0029 18.2817C16.1251 18.1836 16.2264 18.062 16.3007 17.924C16.3751 17.7861 16.421 17.6346 16.4357 17.4785C16.4495 17.3149 16.4292 17.1501 16.376 16.9947C16.3228 16.8392 16.2378 16.6966 16.1265 16.5757C16.3273 16.3568 16.4392 16.0708 16.4401 15.7737C16.4381 14.6287 16.0585 13.5163 15.3602 12.6088C14.6618 11.7014 13.6837 11.0497 12.5773 10.7545L12.4717 9.37374H22.8081L21.7253 23.4349C21.7091 23.6355 21.6182 23.8228 21.4706 23.9596C21.3229 24.0964 21.1294 24.1728 20.9281 24.1737Z" fill="#FF4800"/>
<path d="M1.24015 21.3737C1.24015 21.2677 1.28229 21.1659 1.35731 21.0909C1.43232 21.0159 1.53406 20.9737 1.64015 20.9737H15.2402C15.3462 20.9737 15.448 21.0159 15.523 21.0909C15.598 21.1659 15.6402 21.2677 15.6402 21.3737V21.7737C15.6395 22.4101 15.3865 23.0201 14.9365 23.4701C14.4866 23.92 13.8765 24.1731 13.2402 24.1737H3.64015C3.00383 24.1731 2.39375 23.92 1.9438 23.4701C1.49385 23.0201 1.24079 22.4101 1.24015 21.7737V21.3737ZM17.2402 4.97374V2.81374C17.2402 2.72686 17.2685 2.64236 17.3208 2.57301C17.3732 2.50366 17.4466 2.45323 17.5302 2.42933L19.8002 1.77973C19.8382 1.7694 19.8788 1.77432 19.9133 1.79344C19.9478 1.81256 19.9735 1.84438 19.985 1.88213L20.1226 2.36413C20.1333 2.40227 20.1285 2.44311 20.1093 2.47773C20.09 2.51236 20.0578 2.53795 20.0198 2.54893L18.3282 3.03214C18.245 3.05639 18.172 3.10698 18.12 3.1763C18.0681 3.24561 18.0401 3.32992 18.0402 3.41653V4.97374H17.2402ZM2.04015 18.5737H3.27295C3.41998 18.574 3.56263 18.6239 3.67775 18.7153L4.73855 19.5625C4.90904 19.6996 5.12122 19.7743 5.33995 19.7743C5.55868 19.7743 5.77086 19.6996 5.94135 19.5625L7.00255 18.7149C7.11772 18.6236 7.26036 18.5739 7.40735 18.5737H14.8402C15.0523 18.5737 15.2558 18.658 15.4058 18.8081C15.5559 18.9581 15.6402 19.1616 15.6402 19.3737C15.6402 19.5859 15.5559 19.7894 15.4058 19.9394C15.2558 20.0895 15.0523 20.1737 14.8402 20.1737H2.04015C1.82798 20.1737 1.62449 20.0895 1.47446 19.9394C1.32443 19.7894 1.24015 19.5859 1.24015 19.3737C1.24015 19.1616 1.32443 18.9581 1.47446 18.8081C1.62449 18.658 1.82798 18.5737 2.04015 18.5737ZM5.64015 11.3737H11.2402C12.4067 11.3751 13.525 11.8391 14.3499 12.664C15.1748 13.4888 15.6388 14.6072 15.6402 15.7737C15.6402 15.8798 15.598 15.9816 15.523 16.0566C15.448 16.1316 15.3462 16.1737 15.2402 16.1737H1.64015C1.53406 16.1737 1.43232 16.1316 1.35731 16.0566C1.28229 15.9816 1.24015 15.8798 1.24015 15.7737C1.24153 14.6072 1.70554 13.4888 2.5304 12.664C3.35526 11.8391 4.47362 11.3751 5.64015 11.3737ZM11.2402 14.5737H11.6402C11.7462 14.5737 11.848 14.5316 11.923 14.4566C11.998 14.3816 12.0402 14.2798 12.0402 14.1737C12.0402 14.0676 11.998 13.9659 11.923 13.8909C11.848 13.8159 11.7462 13.7737 11.6402 13.7737H11.2402C11.1341 13.7737 11.0323 13.8159 10.9573 13.8909C10.8823 13.9659 10.8402 14.0676 10.8402 14.1737C10.8402 14.2798 10.8823 14.3816 10.9573 14.4566C11.0323 14.5316 11.1341 14.5737 11.2402 14.5737ZM10.0402 12.9737H10.4402C10.5462 12.9737 10.648 12.9316 10.723 12.8566C10.798 12.7816 10.8402 12.6798 10.8402 12.5737C10.8402 12.4676 10.798 12.3659 10.723 12.2909C10.648 12.2159 10.5462 12.1737 10.4402 12.1737H10.0402C9.93406 12.1737 9.83232 12.2159 9.75731 12.2909C9.68229 12.3659 9.64015 12.4676 9.64015 12.5737C9.64015 12.6798 9.68229 12.7816 9.75731 12.8566C9.83232 12.9316 9.93406 12.9737 10.0402 12.9737ZM7.64015 14.1737H8.04015C8.14624 14.1737 8.24798 14.1316 8.32299 14.0566C8.39801 13.9816 8.44015 13.8798 8.44015 13.7737C8.44015 13.6676 8.39801 13.5659 8.32299 13.4909C8.24798 13.4159 8.14624 13.3737 8.04015 13.3737H7.64015C7.53407 13.3737 7.43232 13.4159 7.35731 13.4909C7.28229 13.5659 7.24015 13.6676 7.24015 13.7737C7.24015 13.8798 7.28229 13.9816 7.35731 14.0566C7.43232 14.1316 7.53407 14.1737 7.64015 14.1737Z" fill="#FF4800"/>
<path d="M15.2402 16.9737C15.2918 16.9734 15.3429 16.9833 15.3906 17.003C15.4383 17.0227 15.4815 17.0518 15.5178 17.0885C15.561 17.1296 15.5942 17.18 15.615 17.2359C15.6358 17.2917 15.6436 17.3516 15.6378 17.4109C15.6208 17.5149 15.5665 17.6091 15.4851 17.6759C15.4036 17.7427 15.3006 17.7775 15.1954 17.7737H7.40737C7.07891 17.7742 6.76029 17.8859 6.50337 18.0905L5.44257 18.9373C5.41343 18.9606 5.37726 18.9733 5.33997 18.9733C5.30268 18.9733 5.2665 18.9606 5.23737 18.9373L4.17697 18.0909C3.92011 17.8861 3.60148 17.7743 3.27297 17.7737H1.64017C1.58862 17.7742 1.53751 17.7643 1.48988 17.7446C1.44225 17.7248 1.39909 17.6957 1.36297 17.6589C1.32008 17.6181 1.287 17.5681 1.26622 17.5127C1.24543 17.4573 1.23748 17.3979 1.24297 17.3389C1.25949 17.2347 1.31352 17.14 1.39491 17.0728C1.4763 17.0055 1.57945 16.9703 1.68497 16.9737H15.2402Z" fill="#FF4800"/>
</g>
<defs>
<clipPath id="clip0_245_2169">
<rect width="24" height="24" fill="white" transform="matrix(-1 0 0 1 24.4402 0.973755)"/>
</clipPath>
</defs>
</svg>
