<svg width="25" height="26" viewBox="0 0 25 26" fill="none" xmlns="http://www.w3.org/2000/svg">
<path d="M14.5 4H10.5C6.72876 4 4.84315 4 3.67157 5.17157C2.5 6.34315 2.5 8.22876 2.5 12V14C2.5 17.7712 2.5 19.6569 3.67157 20.8284C4.84315 22 6.72876 22 10.5 22H14.5C18.2712 22 20.1569 22 21.3284 20.8284C22.5 19.6569 22.5 17.7712 22.5 14V12C22.5 8.22876 22.5 6.34315 21.3284 5.17157C20.1569 4 18.2712 4 14.5 4Z" stroke="#D1D1D1" stroke-width="1.5" stroke-linecap="round" stroke-linejoin="round"/>
<path d="M9 11C9.82843 11 10.5 10.3284 10.5 9.5C10.5 8.67157 9.82843 8 9 8C8.17157 8 7.5 8.67157 7.5 9.5C7.5 10.3284 8.17157 11 9 11Z" stroke="#D1D1D1" stroke-width="1.5" stroke-linecap="round" stroke-linejoin="round"/>
<path d="M22 18L16.848 12.3797C16.6263 12.1377 16.3131 12 15.985 12C15.6744 12 15.3766 12.1234 15.1571 12.3429L10.5 17L8.33928 14.8393C8.12204 14.622 7.82741 14.5 7.52019 14.5C7.18931 14.5 6.87423 14.6415 6.65441 14.8888L3 19" stroke="#D1D1D1" stroke-width="1.5" stroke-linecap="round" stroke-linejoin="round"/>
</svg>
