<svg width="25" height="25" viewBox="0 0 25 25" fill="none" xmlns="http://www.w3.org/2000/svg">
<path d="M5.73832 14.9656L4.91557 18.037L1.90844 18.1006C1.00975 16.4338 0.5 14.5266 0.5 12.5C0.5 10.5403 0.976605 8.6922 1.82142 7.06494H1.82207L4.49925 7.55576L5.67202 10.2169C5.42657 10.9325 5.29278 11.7007 5.29278 12.5C5.29287 13.3675 5.45002 14.1987 5.73832 14.9656Z" fill="#FBBB00"/>
<path d="M23.93 10.2922C24.0657 11.0071 24.1365 11.7454 24.1365 12.5C24.1365 13.3461 24.0475 14.1714 23.8781 14.9675C23.3028 17.6766 21.7995 20.0422 19.717 21.7162L19.7164 21.7156L16.3443 21.5435L15.8671 18.5643C17.2489 17.7539 18.3288 16.4857 18.8976 14.9675H12.5781V10.2922H18.9898H23.93Z" fill="#518EF8"/>
<path d="M19.7165 21.7156L19.7171 21.7163C17.6918 23.3442 15.1191 24.3182 12.3184 24.3182C7.81778 24.3182 3.90481 21.8026 1.90869 18.1007L5.73857 14.9656C6.7366 17.6293 9.30609 19.5254 12.3184 19.5254C13.6132 19.5254 14.8262 19.1754 15.8671 18.5643L19.7165 21.7156Z" fill="#28B446"/>
<path d="M19.8616 3.40259L16.033 6.53699C14.9557 5.86364 13.6823 5.47465 12.3181 5.47465C9.23752 5.47465 6.61998 7.45775 5.67194 10.2169L1.82194 7.06493H1.82129C3.78819 3.27273 7.75051 0.681824 12.3181 0.681824C15.1856 0.681824 17.8148 1.70327 19.8616 3.40259Z" fill="#F14336"/>
</svg>
