<svg width="47" height="46" viewBox="0 0 47 46" fill="none" xmlns="http://www.w3.org/2000/svg">
<circle cx="23.75" cy="23" r="22" fill="#FF4800" stroke="white" stroke-width="2"/>
<path fill-rule="evenodd" clip-rule="evenodd" d="M23 12.25C17.0629 12.25 12.25 17.0629 12.25 23C12.25 28.9371 17.0629 33.75 23 33.75C28.9371 33.75 33.75 28.9371 33.75 23C33.75 17.0629 28.9371 12.25 23 12.25ZM24 19C24 18.4477 23.5523 18 23 18C22.4477 18 22 18.4477 22 19V23C22 23.2652 22.1054 23.5196 22.2929 23.7071L24.2929 25.7071C24.6834 26.0976 25.3166 26.0976 25.7071 25.7071C26.0976 25.3166 26.0976 24.6834 25.7071 24.2929L24 22.5858V19Z" fill="white"/>
</svg>
