<svg width="47" height="46" viewBox="0 0 47 46" fill="none" xmlns="http://www.w3.org/2000/svg">
<circle cx="23.5" cy="23" r="22" fill="#FF4800" stroke="white" stroke-width="2"/>
<path fill-rule="evenodd" clip-rule="evenodd" d="M33.0315 21.8047L32.25 21.1795V30.2191C32.25 31.7379 31.0188 32.9691 29.5 32.9691H17.5C15.9812 32.9691 14.75 31.7379 14.75 30.2191V21.1795L13.9685 21.8047C13.6451 22.0635 13.1731 22.011 12.9144 21.6876C12.6556 21.3641 12.7081 20.8921 13.0315 20.6334L21.7821 13.6329C22.7864 12.8294 24.2136 12.8294 25.2179 13.6329L33.9685 20.6334C34.292 20.8921 34.3444 21.3641 34.0857 21.6876C33.8269 22.011 33.3549 22.0635 33.0315 21.8047ZM24.5 28.2198C24.5 27.6675 24.0523 27.2198 23.5 27.2198C22.9477 27.2198 22.5 27.6675 22.5 28.2198V29.2198C22.5 29.7721 22.9477 30.2198 23.5 30.2198C24.0523 30.2198 24.5 29.7721 24.5 29.2198V28.2198Z" fill="white"/>
</svg>
