<svg width="22" height="23" viewBox="0 0 22 23" fill="none" xmlns="http://www.w3.org/2000/svg">
<path d="M3.32773 13.239C4.10408 9.5109 7.34949 6.86197 11.0002 6.86197C14.6497 6.86197 17.8951 9.5109 18.6726 13.239C18.7034 13.3869 18.7917 13.5165 18.9181 13.5994C19.0444 13.6822 19.1985 13.7114 19.3465 13.6806C19.4944 13.6498 19.6241 13.5615 19.7069 13.4352C19.7897 13.3088 19.8189 13.1547 19.7882 13.0067C18.9037 8.76642 15.2041 5.72363 11.0002 5.72363C6.79626 5.72363 3.09665 8.76642 2.21215 13.0067C2.18136 13.1547 2.21059 13.3088 2.29342 13.4352C2.37625 13.5615 2.5059 13.6498 2.65383 13.6806C2.80177 13.7114 2.95587 13.6822 3.08225 13.5994C3.20864 13.5165 3.29694 13.3869 3.32773 13.239ZM10.9888 9.13866C12.0454 9.13866 13.0588 9.55842 13.806 10.3056C14.5532 11.0528 14.973 12.0662 14.973 13.1229C14.973 14.1795 14.5532 15.1929 13.806 15.9401C13.0588 16.6873 12.0454 17.1071 10.9888 17.1071C9.9321 17.1071 8.9187 16.6873 8.17152 15.9401C7.42434 15.1929 7.00457 14.1795 7.00457 13.1229C7.00457 12.0662 7.42434 11.0528 8.17152 10.3056C8.9187 9.55842 9.9321 9.13866 10.9888 9.13866Z" fill="#FF4800"/>
</svg>
