<svg width="19" height="19" viewBox="0 0 19 19" fill="none" xmlns="http://www.w3.org/2000/svg">
<path d="M15.5 8C15.5 11.7448 11.3458 15.6447 9.95075 16.8492C9.82079 16.947 9.6626 16.9998 9.5 16.9998C9.3374 16.9998 9.17921 16.947 9.04925 16.8492C7.65425 15.6447 3.5 11.7448 3.5 8C3.5 6.4087 4.13214 4.88258 5.25736 3.75736C6.38258 2.63214 7.9087 2 9.5 2C11.0913 2 12.6174 2.63214 13.7426 3.75736C14.8679 4.88258 15.5 6.4087 15.5 8Z" stroke="#FF4800" stroke-width="1.83708" stroke-linecap="round" stroke-linejoin="round"/>
<path d="M9.49976 10.25C10.7424 10.25 11.7498 9.24264 11.7498 8C11.7498 6.75736 10.7424 5.75 9.49976 5.75C8.25712 5.75 7.24976 6.75736 7.24976 8C7.24976 9.24264 8.25712 10.25 9.49976 10.25Z" stroke="#FF4800" stroke-width="1.83708" stroke-linecap="round" stroke-linejoin="round"/>
</svg>
