<svg width="24" height="25" viewBox="0 0 24 25" fill="none" xmlns="http://www.w3.org/2000/svg">
<path d="M11.6143 21.5586C11.8516 21.7008 12.1484 21.7008 12.3857 21.5586C12.6661 21.3787 13.5137 20.8346 13.9912 20.5019C14.9449 19.8374 16.2205 18.8882 17.499 17.75C18.7743 16.6146 20.0728 15.2737 21.0576 13.8252C22.0377 12.3835 22.75 10.7715 22.75 9.10938C22.7499 5.86706 20.3484 3.16504 17 3.16504C15.4082 3.16504 13.8662 3.67772 12 5.37988C10.1338 3.67772 8.59184 3.16504 7 3.16504C3.65156 3.16504 1.25005 5.86706 1.25 9.10938C1.25 10.7715 1.96225 12.3835 2.94238 13.8252C3.92725 15.2737 5.22567 16.6146 6.50098 17.75C7.77947 18.8882 9.05506 19.8374 10.0088 20.5019C10.4863 20.8346 11.3339 21.3787 11.6143 21.5586Z" fill="#FF4800"/>
</svg>
