<svg width="47" height="46" viewBox="0 0 47 46" fill="none" xmlns="http://www.w3.org/2000/svg">
<circle cx="23.25" cy="23" r="22" fill="#FF4800" stroke="white" stroke-width="2"/>
<path d="M22.6143 32.1436C22.8516 32.2858 23.1484 32.2858 23.3857 32.1436C23.6661 31.9637 24.5137 31.4196 24.9912 31.0869C25.9449 30.4224 27.2205 29.4732 28.499 28.335C29.7743 27.1996 31.0728 25.8587 32.0576 24.4102C33.0377 22.9685 33.75 21.3565 33.75 19.6943C33.7499 16.452 31.3484 13.75 28 13.75C26.4082 13.75 24.8662 14.2627 23 15.9648C21.1338 14.2627 19.5918 13.75 18 13.75C14.6516 13.75 12.25 16.452 12.25 19.6943C12.25 21.3565 12.9622 22.9685 13.9424 24.4102C14.9272 25.8587 16.2257 27.1996 17.501 28.335C18.7795 29.4732 20.0551 30.4224 21.0088 31.0869C21.4863 31.4196 22.3339 31.9637 22.6143 32.1436Z" fill="white"/>
</svg>
