<svg width="25" height="24" viewBox="0 0 25 24" fill="none" xmlns="http://www.w3.org/2000/svg">
<path d="M12.5 14.5V13C12.5 12.4477 12.9477 12 13.5 12H21M19 15H20.5C21.0523 15 21.5 15.4477 21.5 16V20C21.5 20.5523 21.0523 21 20.5 21H19M18.5 18.5C18.5 17.9477 18.0523 17.5 17.5 17.5H16.5C15.9477 17.5 15.5 17.0523 15.5 16.5V15M12.5 17.5V19.5M15 21H16" stroke="#BABABA" stroke-width="1.5" stroke-linecap="round" stroke-linejoin="round"/>
<path d="M3.5 12H9.5" stroke="#BABABA" stroke-width="1.5" stroke-linecap="round" stroke-linejoin="round"/>
<path d="M12.5 3V8" stroke="#BABABA" stroke-width="1.5" stroke-linecap="round" stroke-linejoin="round"/>
<path d="M9.5 8V4C9.5 3.44772 9.05228 3 8.5 3H4.5C3.94772 3 3.5 3.44772 3.5 4V8C3.5 8.55228 3.94772 9 4.5 9H8.5C9.05228 9 9.5 8.55228 9.5 8Z" stroke="#BABABA" stroke-width="1.5"/>
<path d="M9.5 20V16C9.5 15.4477 9.05228 15 8.5 15H4.5C3.94772 15 3.5 15.4477 3.5 16V20C3.5 20.5523 3.94772 21 4.5 21H8.5C9.05228 21 9.5 20.5523 9.5 20Z" stroke="#BABABA" stroke-width="1.5"/>
<path d="M21.5 8V4C21.5 3.44772 21.0523 3 20.5 3H16.5C15.9477 3 15.5 3.44772 15.5 4V8C15.5 8.55228 15.9477 9 16.5 9H20.5C21.0523 9 21.5 8.55228 21.5 8Z" stroke="#BABABA" stroke-width="1.5"/>
</svg>
