<svg width="47" height="46" viewBox="0 0 47 46" fill="none" xmlns="http://www.w3.org/2000/svg">
<circle cx="23.3335" cy="23" r="22" fill="#FF4800" stroke="white" stroke-width="2"/>
<path fill-rule="evenodd" clip-rule="evenodd" d="M22.8335 24C22.8335 22.8954 23.7289 22 24.8335 22H32.3335C32.8858 22 33.3335 22.4477 33.3335 23C33.3335 23.5523 32.8858 24 32.3335 24H24.8335V25.5C24.8335 26.0523 24.3858 26.5 23.8335 26.5C23.2812 26.5 22.8335 26.0523 22.8335 25.5V24ZM26.8335 25C27.3858 25 27.8335 25.4477 27.8335 26V27.5H28.8335C29.9381 27.5 30.8335 28.3954 30.8335 29.5C30.8335 30.0523 30.3858 30.5 29.8335 30.5C29.2812 30.5 28.8335 30.0523 28.8335 29.5H27.8335C26.7289 29.5 25.8335 28.6046 25.8335 27.5V26C25.8335 25.4477 26.2812 25 26.8335 25ZM29.3335 26C29.3335 25.4477 29.7812 25 30.3335 25H31.8335C32.9381 25 33.8335 25.8954 33.8335 27V31C33.8335 32.1046 32.9381 33 31.8335 33H30.3335C29.7812 33 29.3335 32.5523 29.3335 32C29.3335 31.4477 29.7812 31 30.3335 31H31.8335V27H30.3335C29.7812 27 29.3335 26.5523 29.3335 26ZM23.8335 27.5C24.3858 27.5 24.8335 27.9477 24.8335 28.5V30.5C24.8335 31.0523 24.3858 31.5 23.8335 31.5C23.2812 31.5 22.8335 31.0523 22.8335 30.5V28.5C22.8335 27.9477 23.2812 27.5 23.8335 27.5ZM25.3335 32C25.3335 31.4477 25.7812 31 26.3335 31H27.3335C27.8858 31 28.3335 31.4477 28.3335 32C28.3335 32.5523 27.8858 33 27.3335 33H26.3335C25.7812 33 25.3335 32.5523 25.3335 32Z" fill="white"/>
<path fill-rule="evenodd" clip-rule="evenodd" d="M13.8335 23C13.8335 22.4477 14.2812 22 14.8335 22H20.8335C21.3858 22 21.8335 22.4477 21.8335 23C21.8335 23.5523 21.3858 24 20.8335 24H14.8335C14.2812 24 13.8335 23.5523 13.8335 23Z" fill="white"/>
<path fill-rule="evenodd" clip-rule="evenodd" d="M23.8335 13C24.3858 13 24.8335 13.4477 24.8335 14V19C24.8335 19.5523 24.3858 20 23.8335 20C23.2812 20 22.8335 19.5523 22.8335 19V14C22.8335 13.4477 23.2812 13 23.8335 13Z" fill="white"/>
<path fill-rule="evenodd" clip-rule="evenodd" d="M13.8335 15C13.8335 13.8954 14.7289 13 15.8335 13H19.8335C20.9381 13 21.8335 13.8954 21.8335 15V19C21.8335 20.1046 20.9381 21 19.8335 21H15.8335C14.7289 21 13.8335 20.1046 13.8335 19V15Z" fill="white"/>
<path fill-rule="evenodd" clip-rule="evenodd" d="M13.8335 27C13.8335 25.8954 14.7289 25 15.8335 25H19.8335C20.9381 25 21.8335 25.8954 21.8335 27V31C21.8335 32.1046 20.9381 33 19.8335 33H15.8335C14.7289 33 13.8335 32.1046 13.8335 31V27Z" fill="white"/>
<path fill-rule="evenodd" clip-rule="evenodd" d="M25.8335 15C25.8335 13.8954 26.7289 13 27.8335 13H31.8335C32.9381 13 33.8335 13.8954 33.8335 15V19C33.8335 20.1046 32.9381 21 31.8335 21H27.8335C26.7289 21 25.8335 20.1046 25.8335 19V15Z" fill="white"/>
</svg>
