<svg width="24" height="25" viewBox="0 0 24 25" fill="none" xmlns="http://www.w3.org/2000/svg">
<path d="M4.75007 9.5C4.75007 5.49594 7.99601 2.25 12.0001 2.25C16.0042 2.25 19.2501 5.49594 19.2501 9.5V14.8074C19.2501 16.127 20.0535 17.3136 21.2787 17.8036C21.6125 17.9372 21.8046 18.2888 21.7366 18.6418C21.6686 18.9949 21.3596 19.25 21.0001 19.25H3.00007C2.64055 19.25 2.33159 18.9949 2.26361 18.6418C2.19562 18.2888 2.38772 17.9372 2.72153 17.8036C3.9467 17.3136 4.75007 16.127 4.75007 14.8074V9.5Z" fill="#D1D1D1"/>
<path d="M8.21777 20.5C8.94024 21.8413 10.3656 22.75 12.0003 22.75C13.635 22.75 15.0604 21.8413 15.7828 20.5H8.21777Z" fill="#D1D1D1"/>
</svg>
