<svg width="25" height="24" viewBox="0 0 25 24" fill="none" xmlns="http://www.w3.org/2000/svg">
<path d="M3.14923 11.1439C2.14608 12.2643 2.1245 13.9546 3.04516 15.1437C4.87211 17.5033 6.87174 19.5029 9.23133 21.3298C10.4204 22.2505 12.1107 22.2289 13.2311 21.2258C16.2729 18.5022 19.0585 15.6559 21.7469 12.5279C22.0127 12.2187 22.1789 11.8397 22.2162 11.4336C22.3812 9.63798 22.7202 4.46467 21.3153 3.05974C19.9103 1.65481 14.737 1.99377 12.9414 2.15876C12.5353 2.19608 12.1563 2.36233 11.847 2.62811C8.71912 5.31646 5.87281 8.10211 3.14923 11.1439Z" stroke="#BABABA" stroke-width="1.5"/>
<path d="M11.3711 10H11.3861M11.3748 16H11.3898" stroke="#BABABA" stroke-width="2" stroke-linecap="round" stroke-linejoin="round"/>
<path d="M7.375 13H15.375" stroke="#BABABA" stroke-width="1.5" stroke-linecap="round" stroke-linejoin="round"/>
<path d="M17.875 5C18.7034 5 19.375 5.67157 19.375 6.5C19.375 7.32843 18.7034 8 17.875 8C17.0466 8 16.375 7.32843 16.375 6.5C16.375 5.67157 17.0466 5 17.875 5Z" stroke="#BABABA" stroke-width="1.5" stroke-linecap="round" stroke-linejoin="round"/>
</svg>
