<svg width="47" height="46" viewBox="0 0 47 46" fill="none" xmlns="http://www.w3.org/2000/svg">
<circle cx="23.5" cy="23" r="22" fill="#FF4800" stroke="white" stroke-width="2"/>
<path fill-rule="evenodd" clip-rule="evenodd" d="M32.4705 13.5294C31.9663 13.0252 31.2081 12.744 30.4594 12.5721C29.6861 12.3945 28.8008 12.3073 27.9308 12.2712C26.1883 12.1989 24.4078 12.3283 23.4977 12.4119C22.9297 12.4641 22.4053 12.6964 21.9831 13.0593C18.8308 15.7686 15.9611 18.5771 13.2154 21.6436C11.9591 23.0467 11.9458 25.1416 13.0771 26.6028C14.9428 29.0125 16.9874 31.0571 19.3971 32.9228C20.8582 34.0541 22.9532 34.0408 24.3563 32.7845C27.4228 30.0388 30.2313 27.1691 32.9406 24.0168C33.3035 23.5945 33.5358 23.0701 33.588 22.5022C33.6716 21.5921 33.801 19.8116 33.7287 18.0691C33.6926 17.1991 33.6054 16.3138 33.4278 15.5405C33.2559 14.7918 32.9747 14.0336 32.4705 13.5294ZM21.9961 19C21.4438 19 20.9961 19.4477 20.9961 20C20.9961 20.5523 21.4438 21 21.9961 21H22.011C22.5633 21 23.011 20.5523 23.011 20C23.011 19.4477 22.5633 19 22.011 19H21.9961ZM21.9998 27C21.4475 27 20.9998 27.4477 20.9998 28C20.9998 28.5522 21.4475 29 21.9998 29H22.0147C22.567 29 23.0147 28.5522 23.0147 28C23.0147 27.4477 22.567 27 22.0147 27H21.9998ZM17 24C17 23.4477 17.4477 23 18 23H26C26.5522 23 27 23.4477 27 24C27 24.5522 26.5522 25 26 25H18C17.4477 25 17 24.5522 17 24ZM28.5 16C29.3284 16 30 16.6716 30 17.5C30 18.3284 29.3284 19 28.5 19C27.6715 19 27 18.3284 27 17.5C27 16.6716 27.6715 16 28.5 16Z" fill="white"/>
</svg>
