<svg width="24" height="24" viewBox="0 0 24 24" fill="none" xmlns="http://www.w3.org/2000/svg">
<path fill-rule="evenodd" clip-rule="evenodd" d="M21.4706 2.5294C20.9664 2.0252 20.2082 1.74402 19.4595 1.57208C18.6862 1.39446 17.8009 1.30726 16.9309 1.27116C15.1884 1.19887 13.4079 1.32827 12.4978 1.4119C11.9298 1.46409 11.4054 1.69644 10.9832 2.05931C7.83088 4.76863 4.96116 7.57712 2.21549 10.6436C0.959175 12.0467 0.94585 14.1416 2.07715 15.6028C3.94289 18.0125 5.9875 20.0571 8.39718 21.9228C9.85831 23.0541 11.9533 23.0408 13.3564 21.7845C16.4229 19.0388 19.2314 16.1691 21.9407 13.0168C22.3036 12.5945 22.5359 12.0701 22.5881 11.5022C22.6717 10.5921 22.8011 8.81159 22.7288 7.06907C22.6927 6.19907 22.6055 5.31381 22.4279 4.54046C22.256 3.79184 21.9748 3.0336 21.4706 2.5294ZM10.9962 8C10.4439 8 9.99615 8.44772 9.99615 9C9.99615 9.55229 10.4439 10 10.9962 10H11.0111C11.5634 10 12.0111 9.55229 12.0111 9C12.0111 8.44772 11.5634 8 11.0111 8H10.9962ZM10.9999 16C10.4476 16 9.99986 16.4477 9.99986 17C9.99986 17.5522 10.4476 18 10.9999 18H11.0148C11.5671 18 12.0148 17.5522 12.0148 17C12.0148 16.4477 11.5671 16 11.0148 16H10.9999ZM6.00006 13C6.00006 12.4477 6.44778 12 7.00006 12H15.0001C15.5523 12 16.0001 12.4477 16.0001 13C16.0001 13.5522 15.5523 14 15.0001 14H7.00006C6.44778 14 6.00006 13.5522 6.00006 13ZM17.5001 5C18.3285 5 19.0001 5.67157 19.0001 6.5C19.0001 7.32843 18.3285 8 17.5001 8C16.6716 8 16.0001 7.32843 16.0001 6.5C16.0001 5.67157 16.6716 5 17.5001 5Z" fill="#FF4800"/>
</svg>
