<svg width="24" height="24" viewBox="0 0 24 24" fill="none" xmlns="http://www.w3.org/2000/svg">
<path d="M2.5 16.5C2.5 17.4293 2.5 17.894 2.57686 18.2804C2.89249 19.8671 4.13288 21.1075 5.71964 21.4231C6.10603 21.5 6.57069 21.5 7.5 21.5M21.5 16.5C21.5 17.4293 21.5 17.894 21.4231 18.2804C21.1075 19.8671 19.8671 21.1075 18.2804 21.4231C17.894 21.5 17.4293 21.5 16.5 21.5M21.5 7.5C21.5 6.57069 21.5 6.10603 21.4231 5.71964C21.1075 4.13288 19.8671 2.89249 18.2804 2.57686C17.894 2.5 17.4293 2.5 16.5 2.5M2.5 7.5C2.5 6.57069 2.5 6.10603 2.57686 5.71964C2.89249 4.13288 4.13288 2.89249 5.71964 2.57686C6.10603 2.5 6.57069 2.5 7.5 2.5" stroke="white" stroke-width="1.5" stroke-linecap="round" stroke-linejoin="round"/>
</svg>
