<svg width="18" height="19" viewBox="0 0 18 19" fill="none" xmlns="http://www.w3.org/2000/svg">
<path d="M12 1.93555V4.93555M6 1.93555V4.93555" stroke="#FF4800" stroke-width="1.5" stroke-linecap="round" stroke-linejoin="round"/>
<path d="M9.75 3.43555H8.25C5.42157 3.43555 4.00736 3.43555 3.12868 4.31422C2.25 5.19291 2.25 6.60712 2.25 9.43555V10.9355C2.25 13.7639 2.25 15.1782 3.12868 16.0568C4.00736 16.9355 5.42157 16.9355 8.25 16.9355H9.75C12.5784 16.9355 13.9927 16.9355 14.8713 16.0568C15.75 15.1782 15.75 13.7639 15.75 10.9355V9.43555C15.75 6.60712 15.75 5.19291 14.8713 4.31422C13.9927 3.43555 12.5784 3.43555 9.75 3.43555Z" stroke="#FF4800" stroke-width="1.5" stroke-linecap="round" stroke-linejoin="round"/>
<path d="M2.25 7.93555H15.75" stroke="#FF4800" stroke-width="1.5" stroke-linecap="round" stroke-linejoin="round"/>
<path d="M8.99662 10.9355H9.00338M8.99662 13.9355H9.00338M11.9933 10.9355H12M6 10.9355H6.00673M6 13.9355H6.00673" stroke="#FF4800" stroke-width="2" stroke-linecap="round" stroke-linejoin="round"/>
</svg>
