<svg width="18" height="19" viewBox="0 0 18 19" fill="none" xmlns="http://www.w3.org/2000/svg">
<g clip-path="url(#clip0_455_903)">
<mask id="mask0_455_903" style="mask-type:luminance" maskUnits="userSpaceOnUse" x="0" y="0" width="18" height="19">
<path d="M0 0.435547H18V18.4355H0V0.435547Z" fill="white"/>
</mask>
<g mask="url(#mask0_455_903)">
<path d="M1.6875 11.9668C1.6875 11.5008 2.06526 11.123 2.53125 11.123H3.65625C4.12224 11.123 4.5 11.5008 4.5 11.9668V17.0293C4.5 17.4953 4.12224 17.873 3.65625 17.873H2.53125C2.06526 17.873 1.6875 17.4953 1.6875 17.0293V11.9668ZM2.53125 12.248C2.68658 12.248 2.8125 12.1221 2.8125 11.9668V17.0293C2.8125 16.874 2.68658 16.748 2.53125 16.748H3.65625C3.50092 16.748 3.375 16.874 3.375 17.0293V11.9668C3.375 12.1221 3.50092 12.248 3.65625 12.248H2.53125Z" fill="#FF4800"/>
<path d="M9.5625 8.5918C9.5625 8.12581 9.94026 7.74805 10.4062 7.74805H11.5312C11.9972 7.74805 12.375 8.12581 12.375 8.5918V17.0293C12.375 17.4953 11.9972 17.873 11.5312 17.873H10.4062C9.94026 17.873 9.5625 17.4953 9.5625 17.0293V8.5918ZM10.4062 8.87305C10.5616 8.87305 10.6875 8.74713 10.6875 8.5918V17.0293C10.6875 16.874 10.5616 16.748 10.4062 16.748H11.5312C11.3759 16.748 11.25 16.874 11.25 17.0293V8.5918C11.25 8.74713 11.3759 8.87305 11.5312 8.87305H10.4062Z" fill="#FF4800"/>
<path d="M13.5 4.6543C13.5 4.18831 13.8778 3.81055 14.3438 3.81055H15.4688C15.9347 3.81055 16.3125 4.18831 16.3125 4.6543V17.0293C16.3125 17.4953 15.9347 17.873 15.4688 17.873H14.3438C13.8778 17.873 13.5 17.4953 13.5 17.0293V4.6543ZM14.3438 4.93555C14.4991 4.93555 14.625 4.80963 14.625 4.6543V17.0293C14.625 16.874 14.4991 16.748 14.3438 16.748H15.4688C15.3134 16.748 15.1875 16.874 15.1875 17.0293V4.6543C15.1875 4.80963 15.3134 4.93555 15.4688 4.93555H14.3438Z" fill="#FF4800"/>
<path d="M5.625 1.8418C5.625 1.37581 6.00276 0.998047 6.46875 0.998047H7.59375C8.05974 0.998047 8.4375 1.37581 8.4375 1.8418V17.0293C8.4375 17.4953 8.05974 17.873 7.59375 17.873H6.46875C6.00276 17.873 5.625 17.4953 5.625 17.0293V1.8418ZM6.46875 2.12305C6.62408 2.12305 6.75 1.99713 6.75 1.8418V17.0293C6.75 16.874 6.62408 16.748 6.46875 16.748H7.59375C7.43842 16.748 7.3125 16.874 7.3125 17.0293V1.8418C7.3125 1.99713 7.43842 2.12305 7.59375 2.12305H6.46875Z" fill="#FF4800"/>
</g>
</g>
<defs>
<clipPath id="clip0_455_903">
<rect width="18" height="18" fill="white" transform="translate(0 0.415039)"/>
</clipPath>
</defs>
</svg>
