<svg width="17" height="16" viewBox="0 0 17 16" fill="none" xmlns="http://www.w3.org/2000/svg">
<path fill-rule="evenodd" clip-rule="evenodd" d="M8.33341 15C4.37537 15 1.16675 11.7914 1.16675 7.83329C1.16675 3.87525 4.37537 0.666626 8.33341 0.666626C12.2915 0.666626 15.5001 3.87525 15.5001 7.83329C15.5001 11.7914 12.2915 15 8.33341 15ZM11.2935 6.43215C11.6241 6.2702 11.7609 5.87085 11.5989 5.5402C11.4369 5.20954 11.0376 5.07278 10.7069 5.23473C9.40308 5.87337 8.39355 6.96923 7.72488 7.86249C7.49315 8.17203 7.29755 8.46376 7.14025 8.71396C6.95416 8.55276 6.77063 8.41923 6.60885 8.31256C6.42383 8.19056 6.25965 8.09869 6.13983 8.03649C6.07975 8.00529 6.03033 7.98123 5.99443 7.96436C5.97647 7.95596 5.96185 7.94929 5.95091 7.94436L5.93732 7.93836L5.93267 7.93636L5.93089 7.93556L5.92949 7.93496C5.92933 7.93489 5.92949 7.93496 5.66688 8.54776L5.92949 7.93496C5.59107 7.78996 5.19915 7.94669 5.05412 8.28509C4.90936 8.62289 5.06547 9.01403 5.40255 9.15976L5.40323 9.16003L5.40561 9.16109C5.40961 9.16289 5.41706 9.16629 5.42761 9.17123C5.44875 9.18116 5.48214 9.19736 5.52518 9.21969C5.61162 9.26463 5.73493 9.33343 5.87491 9.42576C6.16077 9.61423 6.48645 9.88109 6.72073 10.2158C6.85601 10.409 7.08335 10.5164 7.31855 10.4981C7.55361 10.4798 7.76168 10.3385 7.86555 10.1268L7.86728 10.1234L7.87695 10.1042C7.88608 10.0863 7.90041 10.0586 7.91988 10.0221C7.95888 9.94896 8.01821 9.84089 8.09701 9.70663C8.25495 9.43756 8.48928 9.06623 8.79221 8.66156C9.40688 7.84056 10.264 6.93636 11.2935 6.43215Z" fill="#757575"/>
</svg>
