<svg width="119" height="99" viewBox="0 0 119 99" fill="none" xmlns="http://www.w3.org/2000/svg">
<g clip-path="url(#clip0_19_895)">
<path d="M96.2938 21.8289C85.343 8.44355 70.8446 2.56346 53.4495 1.97328C50.9564 2.19026 48.0554 2.35083 45.1892 2.74139C17.364 6.53632 -3.01452 30.2346 1.46172 56.5518C6.35022 85.2818 33.5874 101.889 62.4606 97.9272C101.417 92.5743 119.107 49.7061 96.2938 21.8289Z" fill="#FF4800" fill-opacity="0.1"/>
<path d="M57.9303 76.8044C51.8007 76.4161 49.4378 74.255 45.5235 70.6727L44.6556 69.872C40.2965 65.897 34.3231 60.453 20.7469 46.2432C20.6 46.0896 20.485 45.9084 20.4086 45.71C20.3321 45.5117 20.2958 45.3001 20.3016 45.0877C20.3075 44.8752 20.3554 44.666 20.4426 44.4721C20.5299 44.2783 20.6547 44.1037 20.8098 43.9584C24.3986 40.5888 27.4645 38.0132 31.522 38.0132C36.6839 38.0132 42.4207 42.2269 51.0977 52.4661C56.2747 45.6183 65.7458 33.1074 71.3829 27.7307C93.3237 6.77716 107.429 3.47261 112.064 2.38772C112.42 2.3031 112.715 2.23801 112.932 2.17075C113.073 2.13051 113.219 2.11006 113.366 2.10999C113.64 2.11001 113.909 2.17999 114.148 2.31327C114.387 2.44655 114.589 2.63873 114.733 2.87158C115.189 3.60473 115.685 4.31241 116.219 4.99145C116.353 5.16128 116.452 5.35644 116.509 5.56525C116.566 5.77407 116.581 5.99225 116.551 6.20676C116.522 6.42127 116.45 6.62768 116.339 6.81367C116.229 6.99966 116.081 7.16142 115.907 7.28923C89.9388 26.2509 77.1979 47.0395 61.0678 73.3567L59.4231 76.0385C59.2791 76.2729 59.0774 76.4666 58.8374 76.601C58.5974 76.7355 58.3269 76.8062 58.0518 76.8066L57.9303 76.8044Z" fill="#FF4800" fill-opacity="0.1"/>
<path d="M113.346 3.71993C113.833 4.50584 114.364 5.26359 114.937 5.98953C87.8404 25.7779 75.1689 47.2651 58.0321 75.2053C52.1737 74.8364 50.3229 72.8771 45.9876 68.926C41.6004 64.9249 35.7073 59.5959 21.9032 45.1387C25.2403 42.0078 28.0306 39.6319 31.5131 39.6319C36.0154 39.6319 41.672 43.6069 51.1517 55.059C56.088 48.5496 66.4833 34.6284 72.4871 28.898C96.0139 6.42781 110.458 4.53577 113.348 3.72861M113.348 0.508678C113.055 0.508866 112.763 0.548999 112.48 0.628C112.281 0.684414 112.016 0.745171 111.688 0.821113C106.947 1.93204 92.5184 5.31255 70.2631 26.5698C64.9276 31.6645 56.6109 42.5133 51.0085 49.9122C42.6961 40.3652 36.918 36.4141 31.5131 36.4119C26.4987 36.4119 22.7299 39.9508 19.7009 42.7932C19.3912 43.0843 19.1423 43.4337 18.9683 43.8214C18.7944 44.2091 18.699 44.6275 18.6875 45.0522C18.676 45.477 18.7487 45.8999 18.9014 46.2964C19.0541 46.693 19.2837 47.0554 19.5772 47.3628C33.1838 61.6052 39.1789 67.0708 43.5575 71.0611L43.8222 71.3041L44.4406 71.8704C48.4742 75.559 51.1365 77.9956 57.8325 78.4187C57.8997 78.4187 57.9691 78.4187 58.0364 78.4187C58.5868 78.4186 59.1279 78.2773 59.6081 78.0083C60.0882 77.7394 60.4914 77.3518 60.779 76.8825L62.4259 74.1985C78.4627 48.0332 91.1298 27.3661 116.839 8.59109C117.189 8.33541 117.484 8.01186 117.705 7.63977C117.927 7.26768 118.072 6.8547 118.13 6.4255C118.189 5.9963 118.16 5.55969 118.046 5.1418C117.932 4.72391 117.735 4.33329 117.467 3.99332C116.969 3.36367 116.508 2.70587 116.087 2.02318C115.797 1.55825 115.394 1.17479 114.915 0.909021C114.437 0.643255 113.898 0.503965 113.35 0.504334L113.348 0.508678Z" fill="#FF4800"/>
</g>
<defs>
<clipPath id="clip0_19_895">
<rect width="117.313" height="98" fill="white" transform="translate(0.843506 0.5)"/>
</clipPath>
</defs>
</svg>
