<svg width="24" height="24" viewBox="0 0 24 24" fill="none" xmlns="http://www.w3.org/2000/svg">
<path d="M21.8613 5.39176C22.2882 6.49635 21.6895 7.2526 20.5307 7.99754C19.5958 8.5986 18.4046 9.24975 17.1424 10.363C15.905 11.4543 14.6975 12.7687 13.6244 14.0625C12.5556 15.351 11.6472 16.586 11.0053 17.5005C10.5905 18.0914 10.0117 18.9729 10.0117 18.9729C9.60354 19.6187 8.86968 20.0096 8.0828 19.9998C7.29574 19.99 6.57281 19.5812 6.18229 18.9251C5.18402 17.248 4.41369 16.5857 4.05964 16.3478C3.11231 15.7112 2.00073 15.6171 2.00073 14.1335C2.00073 12.9554 2.99563 12.0003 4.22289 12.0003C5.08935 12.0323 5.89471 12.373 6.60829 12.8526C7.06443 13.1591 7.54762 13.5645 8.05021 14.0981C8.64007 13.2936 9.35089 12.3653 10.1477 11.4047C11.3049 10.0097 12.6708 8.51309 14.1356 7.22116C15.5755 5.95115 17.2403 4.76235 19.0049 4.13381C20.1556 3.72397 21.4344 4.28718 21.8613 5.39176Z" fill="#34A853"/>
</svg>
