<svg width="25" height="24" viewBox="0 0 25 24" fill="none" xmlns="http://www.w3.org/2000/svg">
<path d="M3.375 16.5C3.375 17.4293 3.375 17.894 3.45186 18.2804C3.76749 19.8671 5.00788 21.1075 6.59464 21.4231C6.98103 21.5 7.44569 21.5 8.375 21.5M22.375 16.5C22.375 17.4293 22.375 17.894 22.2981 18.2804C21.9825 19.8671 20.7421 21.1075 19.1554 21.4231C18.769 21.5 18.3043 21.5 17.375 21.5M22.375 7.5C22.375 6.57069 22.375 6.10603 22.2981 5.71964C21.9825 4.13288 20.7421 2.89249 19.1554 2.57686C18.769 2.5 18.3043 2.5 17.375 2.5M3.375 7.5C3.375 6.57069 3.375 6.10603 3.45186 5.71964C3.76749 4.13288 5.00788 2.89249 6.59464 2.57686C6.98103 2.5 7.44569 2.5 8.375 2.5" stroke="#FF4800" stroke-width="1.5" stroke-linecap="round" stroke-linejoin="round"/>
</svg>
