<svg width="25" height="24" viewBox="0 0 25 24" fill="none" xmlns="http://www.w3.org/2000/svg">
<path d="M15.4527 2H9.54738V4.58152L7.65473 5.69367L5.45267 4.40192L2.5 9.59808L4.70152 10.8895L4.70153 13.1106L2.5001 14.4019L5.45277 19.5981L7.65477 18.3064L9.54738 19.4185V22H15.4527V19.4185L17.3453 18.3064L19.5472 19.5981L22.4999 14.4019L20.2986 13.1106V10.8894L22.5 9.59808L19.5473 4.40192L17.3453 5.69363L15.4527 4.58152V2Z" stroke="#FF4800" stroke-width="1.5" stroke-linejoin="round"/>
<path d="M16 12C16 13.933 14.433 15.5 12.5 15.5C10.567 15.5 9 13.933 9 12C9 10.067 10.567 8.5 12.5 8.5C14.433 8.5 16 10.067 16 12Z" stroke="#FF4800" stroke-width="1.5"/>
</svg>
