<svg width="24" height="25" viewBox="0 0 24 25" fill="none" xmlns="http://www.w3.org/2000/svg">
<path fill-rule="evenodd" clip-rule="evenodd" d="M8.34088 4.34082H9.42508C9.9844 4.34082 10.4378 4.7761 10.4378 5.31304C10.4378 5.84999 9.9844 6.28527 9.42508 6.28527H8.41235C6.95151 6.28527 5.95775 6.28733 5.21358 6.38338C4.49854 6.47567 4.16735 6.63839 3.94195 6.85478C3.71654 7.07117 3.54704 7.38911 3.45091 8.07555C3.35085 8.78996 3.3487 9.74396 3.3487 11.1464V15.0352C3.3487 16.4377 3.35085 17.3917 3.45091 18.1061C3.54704 18.7925 3.71654 19.1105 3.94195 19.3268C4.16735 19.5432 4.49854 19.706 5.21358 19.7982C5.95775 19.8943 6.95151 19.8964 8.41235 19.8964H12.5021C13.9629 19.8964 14.9567 19.8943 15.7009 19.7982C16.4159 19.706 16.7471 19.5432 16.9725 19.3268C17.2665 19.0446 17.4592 18.5966 17.5285 17.4113C17.5598 16.8752 18.0379 16.465 18.5964 16.4951C19.1548 16.5252 19.5821 16.9842 19.5508 17.5203C19.4771 18.781 19.2638 19.877 18.4047 20.7018C17.7403 21.3397 16.9104 21.6041 15.9708 21.7253C15.0757 21.8409 13.9449 21.8408 12.5735 21.8408H8.34091C6.96954 21.8408 5.8387 21.8409 4.94369 21.7253C4.00405 21.6041 3.17419 21.3397 2.50973 20.7018C1.84527 20.0639 1.56984 19.2672 1.44351 18.3652C1.32318 17.506 1.32321 16.4204 1.32324 15.1039V11.0777C1.32321 9.76126 1.32318 8.67566 1.44351 7.81645C1.56984 6.9144 1.84527 6.11773 2.50973 5.47985C3.17419 4.84197 4.00405 4.57755 4.94369 4.45628C5.8387 4.34076 6.96952 4.34079 8.34088 4.34082Z" fill="#FF4800"/>
<path d="M16.5349 3.34082C15.9001 3.34082 15.3854 3.8349 15.3854 4.44437V6.84082H12.5208C9.21288 6.84082 6.53125 9.41518 6.53125 12.5908V15.0908C6.53125 15.4469 6.79207 15.7539 7.15542 15.8255C7.51783 15.8969 7.88258 15.7145 8.02945 15.3888C8.0716 15.3097 8.19253 15.0847 8.28617 14.9402C8.47415 14.6503 8.76538 14.2616 9.17347 13.8738C9.98241 13.105 11.2451 12.3408 13.1157 12.3408H15.3854V14.7372C15.3854 15.3467 15.9001 15.8408 16.5349 15.8408C16.8398 15.8408 17.1322 15.7245 17.3478 15.5176L22.08 10.9747C22.4623 10.6077 22.6771 10.1099 22.6771 9.59082C22.6771 9.07176 22.4623 8.57397 22.08 8.20694L17.3478 3.66404C17.1322 3.45709 16.8398 3.34082 16.5349 3.34082Z" fill="#FF4800"/>
</svg>
