<svg width="25" height="25" viewBox="0 0 25 25" fill="none" xmlns="http://www.w3.org/2000/svg">
<path fill-rule="evenodd" clip-rule="evenodd" d="M19.9553 4.25661C19.1651 3.86745 18.2674 3.80993 17.4334 4.09484C16.6718 4.35448 16.0463 4.87071 15.6468 5.55879L21.5597 8.46411C22.2071 6.8735 21.5202 5.02479 19.9553 4.25661ZM15.954 14.996C15.954 13.9846 16.7771 13.162 17.7867 13.162C18.7986 13.162 19.6216 13.9846 19.6216 14.996V15.5407H20.0913V14.996C20.0913 13.7262 19.0575 12.6932 17.7867 12.6932C16.5181 12.6932 15.4843 13.7263 15.4843 14.996V15.5407H15.954V14.996H15.954ZM15.954 16.0096V17.3802C15.954 17.4425 15.9293 17.5023 15.8852 17.5463C15.8412 17.5903 15.7815 17.6151 15.7192 17.6151C15.6569 17.6151 15.5972 17.5903 15.5531 17.5463C15.5091 17.5023 15.4843 17.4425 15.4843 17.3802V16.0096H14.5515C14.2069 16.0096 13.926 16.256 13.8799 16.5969L13.1446 22.0494C13.0905 22.4581 13.4027 22.8178 13.8162 22.8178H21.7594C22.1722 22.8178 22.4851 22.4579 22.431 22.0494L21.6957 16.5969C21.6497 16.256 21.3665 16.0096 21.0241 16.0096H20.0913V17.3802C20.0913 17.5095 19.9859 17.6147 19.8565 17.6147C19.727 17.6147 19.6216 17.5095 19.6216 17.3802V16.0096H15.954ZM10.4801 12.4728H13.5024L13.9655 15.6987C13.6714 15.8708 13.4629 16.1709 13.4146 16.5341L12.8878 20.4401H5.89722L6.46347 16.4924C7.21675 16.8403 8.12069 16.5597 8.5398 15.8337L10.4801 12.4728ZM6.99466 13.1273C6.52896 13.1273 6.36621 13.7439 6.76638 13.9743C6.87047 14.0343 6.99414 14.0505 7.1102 14.0194C7.22626 13.9883 7.32521 13.9124 7.38532 13.8083C7.55993 13.5058 7.34032 13.1273 6.99466 13.1273ZM6.1518 10.8122C6.35463 10.4609 6.0259 10.0425 5.6404 10.1469C5.24964 10.2528 5.18439 10.7798 5.53066 10.9786C5.74811 11.1034 6.0236 11.0311 6.1518 10.8122ZM8.95685 7.61187C9.36949 7.85 9.51213 8.37982 9.27293 8.7927C8.88799 9.45757 7.88744 9.32586 7.69043 8.5842C7.49285 7.84025 8.2939 7.22853 8.95685 7.61187ZM10.7456 10.1976L9.736 7.67853C9.53271 7.1697 9.03743 6.89651 8.5091 6.96959L5.8226 7.355C5.46265 7.40656 5.17511 7.60104 4.99296 7.91642L2.4513 12.3186C2.1348 12.8688 2.32572 13.5698 2.8705 13.8847L6.56665 16.019C7.11466 16.3348 7.81854 16.1476 8.13377 15.5993L10.6754 11.1973C10.8576 10.882 10.8817 10.536 10.7456 10.1976ZM6.21986 9.78607C6.93621 10.1991 6.7803 11.2692 5.99819 11.4768C5.2031 11.6877 4.5505 10.8343 4.96005 10.1239C5.21538 9.68084 5.7798 9.53201 6.21986 9.78607ZM6.19352 13.1198C5.93889 13.5604 6.09035 14.1257 6.53154 14.3801C6.96663 14.6318 7.53368 14.488 7.79139 14.0427C8.04602 13.602 7.89457 13.0362 7.45338 12.7822C7.01439 12.5277 6.44814 12.6791 6.19352 13.1198ZM7.85065 10.9612L4.66591 12.7996C4.55397 12.8643 4.51446 13.0077 4.58032 13.1198C4.6115 13.1736 4.66276 13.2128 4.72283 13.2289C4.78291 13.2449 4.8469 13.2365 4.90075 13.2054L8.08549 11.367C8.19743 11.3025 8.23474 11.1589 8.17108 11.0468C8.10522 10.9348 7.96258 10.896 7.85065 10.9612ZM8.86685 8.55828C9.04647 8.24928 8.75496 7.8882 8.4235 7.97796C8.07729 8.07167 8.02718 8.53071 8.32694 8.70317C8.51566 8.81201 8.75932 8.74723 8.86685 8.55828ZM12.0538 6.08993L13.6955 6.1729L13.7131 5.67729C13.1666 4.99709 12.8462 4.08448 12.8176 3.12973H12.0011C11.8124 3.91854 11.1012 4.49051 10.2716 4.49051C9.44196 4.49051 8.73082 3.91854 8.54205 3.12973H7.72779C7.69704 4.08448 7.3788 4.99709 6.83008 5.67729L6.8696 6.7317L8.44329 6.50567C8.80175 6.45373 9.16726 6.52393 9.48099 6.70495C9.79472 6.88598 10.0384 7.1673 10.1728 7.50364L11.1825 10.0231C11.3734 10.4998 11.3383 10.9873 11.0815 11.4318L10.7501 12.004H13.4783L13.599 8.73453C12.7189 8.26395 12.0736 7.55698 11.8124 6.37442C11.7795 6.22395 11.9004 6.08201 12.0538 6.08993ZM22.6637 11.7186C21.1142 10.6616 19.4021 10.2117 17.8087 9.8802C19.4263 11.6398 21.0242 12.2445 22.6637 11.7186ZM21.1317 9.77839L21.9679 10.7549C20.3394 9.89932 18.6252 9.56042 17.0734 9.25381C14.771 8.79926 12.9274 8.43532 12.3501 6.57411L14.8676 6.701L21.1317 9.77839ZM21.3621 8.88879L21.1712 9.27598L15.2407 6.36275L15.4316 5.97556L21.3621 8.88879Z" fill="#FF4800"/>
</svg>
