<svg width="16" height="17" viewBox="0 0 16 17" fill="none" xmlns="http://www.w3.org/2000/svg">
<path d="M7.9974 1.33334C8.69693 1.33334 9.24793 1.8617 9.59966 2.57462L10.7744 4.94345C10.81 5.01676 10.8945 5.12 11.0214 5.21444C11.1482 5.30878 11.2724 5.36082 11.3541 5.37454L13.4805 5.73076C14.2486 5.85983 14.8924 6.23634 15.1014 6.89194C15.3102 7.54701 15.0043 8.22774 14.4519 8.78108L14.4513 8.78168L12.7994 10.4473C12.7339 10.5133 12.6606 10.6376 12.6146 10.7996C12.5689 10.9605 12.5649 11.1071 12.5856 11.2018L12.5859 11.2031L13.0585 13.2636C13.2545 14.1211 13.1895 14.9715 12.5847 15.4161C11.9778 15.8622 11.1485 15.6645 10.395 15.2157L8.40173 14.026C8.318 13.976 8.17426 13.9355 8.00073 13.9355C7.82846 13.9355 7.68173 13.9755 7.59253 14.0273L7.59126 14.0281L5.60192 15.2155C4.84936 15.6658 4.02102 15.86 3.41407 15.4135C2.80966 14.9688 2.74142 14.12 2.93807 13.2631L3.4106 11.2031L3.41088 11.2018C3.4316 11.1071 3.42755 10.9605 3.38187 10.7996C3.33587 10.6376 3.26252 10.5133 3.19705 10.4473L1.5439 8.78041C0.995098 8.22708 0.690138 7.54694 0.897298 6.89284C1.10506 6.23684 1.74762 5.85988 2.51622 5.73072L4.64088 5.3748L4.64155 5.37469C4.71944 5.36118 4.8418 5.30972 4.96832 5.21513C5.09507 5.12037 5.17973 5.01691 5.21541 4.94345L5.21721 4.93979L6.39041 2.57399L6.39088 2.57306C6.746 1.86073 7.29867 1.33334 7.9974 1.33334Z" fill="#F7C059"/>
</svg>
