<svg width="24" height="25" viewBox="0 0 24 25" fill="none" xmlns="http://www.w3.org/2000/svg">
<path d="M21.8616 5.98258C22.2885 7.08717 21.6898 7.84342 20.531 8.58836C19.5961 9.18942 18.4049 9.84057 17.1427 10.9538C15.9053 12.0451 14.6978 13.3595 13.6247 14.6533C12.5559 15.9418 11.6475 17.1768 11.0056 18.0913C10.5908 18.6822 10.012 19.5637 10.012 19.5637C9.60379 20.2095 8.86993 20.6004 8.08305 20.5906C7.29599 20.5808 6.57306 20.172 6.18254 19.5159C5.18427 17.8388 4.41394 17.1765 4.05989 16.9386C3.11256 16.302 2.00098 16.2079 2.00098 14.7243C2.00098 13.5462 2.99588 12.5911 4.22314 12.5911C5.0896 12.6231 5.89496 12.9638 6.60854 13.4434C7.06468 13.7499 7.54787 14.1553 8.05046 14.6889C8.64032 13.8844 9.35114 12.9561 10.148 11.9955C11.3052 10.6005 12.6711 9.10391 14.1359 7.81198C15.5758 6.54197 17.2406 5.35317 19.0052 4.72463C20.1559 4.31479 21.4347 4.878 21.8616 5.98258Z" fill="#34A853"/>
</svg>
