<svg width="24" height="25" viewBox="0 0 24 25" fill="none" xmlns="http://www.w3.org/2000/svg">
<g clip-path="url(#clip0_232_6721)">
<mask id="mask0_232_6721" style="mask-type:luminance" maskUnits="userSpaceOnUse" x="0" y="1" width="24" height="24">
<path d="M0 1H24V25H0V1Z" fill="white"/>
</mask>
<g mask="url(#mask0_232_6721)">
<path d="M2.25 16.375C2.25 15.7537 2.75368 15.25 3.375 15.25H4.875C5.49632 15.25 6 15.7537 6 16.375V23.125C6 23.7463 5.49632 24.25 4.875 24.25H3.375C2.75368 24.25 2.25 23.7463 2.25 23.125V16.375ZM3.375 16.75C3.58211 16.75 3.75 16.5821 3.75 16.375V23.125C3.75 22.9179 3.58211 22.75 3.375 22.75H4.875C4.66789 22.75 4.5 22.9179 4.5 23.125V16.375C4.5 16.5821 4.66789 16.75 4.875 16.75H3.375Z" fill="#FF4800"/>
<path d="M12.75 11.875C12.75 11.2537 13.2537 10.75 13.875 10.75H15.375C15.9963 10.75 16.5 11.2537 16.5 11.875V23.125C16.5 23.7463 15.9963 24.25 15.375 24.25H13.875C13.2537 24.25 12.75 23.7463 12.75 23.125V11.875ZM13.875 12.25C14.0821 12.25 14.25 12.0821 14.25 11.875V23.125C14.25 22.9179 14.0821 22.75 13.875 22.75H15.375C15.1679 22.75 15 22.9179 15 23.125V11.875C15 12.0821 15.1679 12.25 15.375 12.25H13.875Z" fill="#FF4800"/>
<path d="M18 6.625C18 6.00368 18.5037 5.5 19.125 5.5H20.625C21.2463 5.5 21.75 6.00368 21.75 6.625V23.125C21.75 23.7463 21.2463 24.25 20.625 24.25H19.125C18.5037 24.25 18 23.7463 18 23.125V6.625ZM19.125 7C19.3321 7 19.5 6.83211 19.5 6.625V23.125C19.5 22.9179 19.3321 22.75 19.125 22.75H20.625C20.4179 22.75 20.25 22.9179 20.25 23.125V6.625C20.25 6.83211 20.4179 7 20.625 7H19.125Z" fill="#FF4800"/>
<path d="M7.5 2.875C7.5 2.25368 8.00368 1.75 8.625 1.75H10.125C10.7463 1.75 11.25 2.25368 11.25 2.875V23.125C11.25 23.7463 10.7463 24.25 10.125 24.25H8.625C8.00368 24.25 7.5 23.7463 7.5 23.125V2.875ZM8.625 3.25C8.83211 3.25 9 3.08211 9 2.875V23.125C9 22.9179 8.83211 22.75 8.625 22.75H10.125C9.91789 22.75 9.75 22.9179 9.75 23.125V2.875C9.75 3.08211 9.91789 3.25 10.125 3.25H8.625Z" fill="#FF4800"/>
</g>
</g>
<defs>
<clipPath id="clip0_232_6721">
<rect width="24" height="24" fill="white" transform="translate(0 0.5)"/>
</clipPath>
</defs>
</svg>
