<svg width="25" height="24" viewBox="0 0 25 24" fill="none" xmlns="http://www.w3.org/2000/svg">
<g clip-path="url(#clip0_245_1595)">
<mask id="mask0_245_1595" style="mask-type:luminance" maskUnits="userSpaceOnUse" x="0" y="0" width="25" height="24">
<path d="M0.125 0H24.125V24H0.125V0Z" fill="white"/>
</mask>
<g mask="url(#mask0_245_1595)">
<mask id="mask1_245_1595" style="mask-type:luminance" maskUnits="userSpaceOnUse" x="0" y="0" width="25" height="24">
<path d="M0.125 0H24.125V24H0.125V0Z" fill="white"/>
</mask>
<g mask="url(#mask1_245_1595)">
<path d="M20.375 10.3711V19.5C20.375 20.3284 20.0821 21.0355 19.4963 21.6213C18.9105 22.2071 18.2034 22.5 17.375 22.5H6.875C6.04657 22.5 5.33947 22.2071 4.75368 21.6213C4.16789 21.0355 3.875 20.3284 3.875 19.5V4.5C3.875 3.67157 4.16789 2.96447 4.75368 2.37868C5.33947 1.79289 6.04657 1.5 6.875 1.5H11.5039C11.8022 1.50005 12.0892 1.55714 12.3648 1.67129C12.6403 1.78543 12.8836 1.94795 13.0945 2.15883L19.7161 8.78045C19.927 8.99142 20.0896 9.23469 20.2037 9.51024C20.3178 9.7858 20.3749 10.0728 20.375 10.3711ZM18.875 10.3712C18.875 10.2718 18.856 10.1761 18.8179 10.0843C18.7798 9.99244 18.7257 9.91138 18.6555 9.84111L12.0339 3.21961C11.9636 3.14932 11.8826 3.09514 11.7907 3.0571C11.6989 3.01905 11.6033 3.00002 11.5039 3H6.875C6.46079 3 6.10723 3.14645 5.81434 3.43934C5.52145 3.73223 5.375 4.08579 5.375 4.5V19.5C5.375 19.9142 5.52145 20.2678 5.81434 20.5607C6.10723 20.8536 6.46079 21 6.875 21H17.375C17.7892 21 18.1428 20.8536 18.4357 20.5607C18.7286 20.2678 18.875 19.9142 18.875 19.5V10.3712Z" fill="#FF4800"/>
<path fill-rule="evenodd" clip-rule="evenodd" d="M12.125 1.875C11.7108 1.875 11.375 2.21079 11.375 2.625V8.25C11.375 8.87132 11.5947 9.40165 12.034 9.84099C12.4734 10.2803 13.0037 10.5 13.625 10.5H19.25C19.6642 10.5 20 10.1642 20 9.75C20 9.33579 19.6642 9 19.25 9H13.625C13.4179 9 13.2411 8.92678 13.0947 8.78033C12.9482 8.63388 12.875 8.45711 12.875 8.25V2.625C12.875 2.21079 12.5392 1.875 12.125 1.875ZM7.625 13.5C7.625 13.9142 7.96079 14.25 8.375 14.25H15.875C16.2892 14.25 16.625 13.9142 16.625 13.5C16.625 13.0858 16.2892 12.75 15.875 12.75H8.375C7.96079 12.75 7.625 13.0858 7.625 13.5ZM7.625 17.25C7.625 17.6642 7.96079 18 8.375 18H15.875C16.2892 18 16.625 17.6642 16.625 17.25C16.625 16.8358 16.2892 16.5 15.875 16.5H8.375C7.96079 16.5 7.625 16.8358 7.625 17.25Z" fill="#FF4800"/>
</g>
</g>
</g>
<defs>
<clipPath id="clip0_245_1595">
<rect width="24" height="24" fill="white" transform="translate(0.125)"/>
</clipPath>
</defs>
</svg>
