<svg width="37" height="36" viewBox="0 0 37 36" fill="none" xmlns="http://www.w3.org/2000/svg">
<path d="M26.7164 13.5166C26.7275 13.5165 26.7388 13.5165 26.75 13.5165C30.478 13.5165 33.5 16.5441 33.5 20.279C33.5 23.7597 30.875 26.6262 27.5 27M26.7164 13.5166C26.7386 13.2691 26.75 13.0184 26.75 12.7651C26.75 8.20042 23.0564 4.5 18.5 4.5C14.1849 4.5 10.6435 7.81901 10.2806 12.0479M26.7164 13.5166C26.563 15.2214 25.8929 16.7769 24.8642 18.0248M10.2806 12.0479C6.47597 12.4106 3.5 15.6209 3.5 19.5275C3.5 23.1625 6.07664 26.1948 9.5 26.8909M10.2806 12.0479C10.5174 12.0253 10.7573 12.0138 11 12.0138C12.6887 12.0138 14.2471 12.5729 15.5007 13.5165" stroke="#FF4800" stroke-width="1.5" stroke-linecap="round" stroke-linejoin="round"/>
<path d="M18.5 19.5V31.5M18.5 19.5C17.4497 19.5 15.4873 22.4915 14.75 23.25M18.5 19.5C19.5503 19.5 21.5128 22.4915 22.25 23.25" stroke="#FF4800" stroke-width="1.5" stroke-linecap="round" stroke-linejoin="round"/>
</svg>
