<svg width="47" height="46" viewBox="0 0 47 46" fill="none" xmlns="http://www.w3.org/2000/svg">
<circle cx="23.5" cy="23" r="22" fill="#FF4800" stroke="white" stroke-width="2"/>
<path fill-rule="evenodd" clip-rule="evenodd" d="M25.8671 13.25H21.7999C20.4282 13.25 19.3528 13.25 18.4884 13.3206C17.6083 13.3925 16.8812 13.5414 16.223 13.8767C15.1411 14.428 14.2615 15.3076 13.7102 16.3896C13.3749 17.0477 13.226 17.7748 13.1541 18.6549C13.0835 19.5193 13.0835 20.5947 13.0835 21.9664V22.0336C13.0835 23.4053 13.0835 24.4807 13.1541 25.3451C13.226 26.2252 13.3749 26.9523 13.7102 27.6104C14.2615 28.6924 15.1411 29.572 16.223 30.1233C16.8812 30.4586 17.6083 30.6075 18.4884 30.6794C19.3527 30.75 20.4281 30.75 21.7997 30.75H25.8671H25.869C26.2017 30.75 26.5171 30.75 26.8162 30.749C25.3196 29.8928 25.5325 27.407 27.4545 27.0142C28.156 26.8708 28.7043 26.3225 28.8477 25.621C29.2895 23.4596 32.3776 23.4598 32.8193 25.621C32.9623 26.3204 33.5076 26.8674 34.206 27.0128C34.3727 26.5137 34.462 25.9676 34.5129 25.3451C34.5835 24.4808 34.5835 23.4054 34.5835 22.0338V21.9664C34.5835 20.5948 34.5835 19.5192 34.5129 18.6549C34.441 17.7748 34.2921 17.0477 33.9568 16.3896C33.4055 15.3076 32.5259 14.428 31.4439 13.8767C30.7858 13.5414 30.0587 13.3925 29.1786 13.3206C28.3142 13.25 27.2388 13.25 25.8671 13.25ZM26.4804 23.6727C27.2219 23.1531 27.5926 22.8934 27.741 22.5158C27.8643 22.2021 27.8643 21.7979 27.741 21.4842C27.5926 21.1066 27.2219 20.8469 26.4804 20.3273C25.9609 19.9633 25.4229 19.6021 24.9502 19.3165C24.5564 19.0785 24.0924 18.8231 23.6264 18.5778C22.8385 18.1631 22.4446 17.9558 22.0632 18.0079C21.747 18.0511 21.4163 18.2524 21.2218 18.5199C20.9871 18.8427 20.9578 19.3068 20.8993 20.235C20.8607 20.8455 20.8335 21.4661 20.8335 22C20.8335 22.5339 20.8607 23.1545 20.8993 23.765C20.9578 24.6932 20.9871 25.1573 21.2218 25.4801C21.4163 25.7476 21.747 25.9489 22.0632 25.9921C22.4446 26.0442 22.8385 25.8369 23.6264 25.4221C24.0924 25.1768 24.5564 24.9215 24.9502 24.6835C25.4229 24.3978 25.9609 24.0367 26.4804 23.6727ZM31.5946 25.8713C31.4253 25.0429 30.2417 25.0429 30.0724 25.8713C29.8287 27.0635 28.897 27.9952 27.7048 28.2389C26.8764 28.4082 26.8764 29.5918 27.7048 29.7611C28.897 30.0048 29.8287 30.9365 30.0724 32.1287C30.2417 32.9571 31.4253 32.9571 31.5946 32.1287C31.8383 30.9365 32.77 30.0048 33.9622 29.7611C34.7906 29.5918 34.7906 28.4082 33.9622 28.2389C32.77 27.9952 31.8383 27.0635 31.5946 25.8713Z" fill="white"/>
</svg>
