<svg width="25" height="24" viewBox="0 0 25 24" fill="none" xmlns="http://www.w3.org/2000/svg">
<path d="M19.4737 15.0215C19.4795 14.9928 19.5205 14.9928 19.5263 15.0215C19.8302 16.5081 20.9919 17.6698 22.4785 17.9737C22.5072 17.9795 22.5072 18.0205 22.4785 18.0263C20.9919 18.3302 19.8302 19.4919 19.5263 20.9785C19.5205 21.0072 19.4795 21.0072 19.4737 20.9785C19.1698 19.4919 18.0081 18.3302 16.5215 18.0263C16.4928 18.0205 16.4928 17.9795 16.5215 17.9737C18.0081 17.6698 19.1698 16.5081 19.4737 15.0215Z" stroke="#BABABA" stroke-width="1.5"/>
<path d="M15.1469 12.6727C15.8884 12.1531 16.2591 11.8934 16.4075 11.5158C16.5308 11.2021 16.5308 10.7979 16.4075 10.4842C16.2591 10.1066 15.8884 9.84685 15.1469 9.3273C14.6274 8.9633 14.0894 8.60214 13.6167 8.3165C13.2229 8.07852 12.7589 7.82314 12.2929 7.57784C11.505 7.16312 11.1111 6.95576 10.7297 7.00792C10.4135 7.05115 10.0828 7.25237 9.88829 7.5199C9.6536 7.84266 9.62432 8.30677 9.56577 9.23497C9.52725 9.84551 9.5 10.4661 9.5 11C9.5 11.5339 9.52725 12.1545 9.56577 12.765C9.62432 13.6932 9.6536 14.1573 9.88829 14.4801C10.0828 14.7476 10.4135 14.9489 10.7297 14.9921C11.1111 15.0442 11.505 14.8369 12.2929 14.4221C12.7589 14.1768 13.2229 13.9215 13.6167 13.6835C14.0894 13.3978 14.6274 13.0367 15.1469 12.6727Z" stroke="#BABABA" stroke-width="1.5" stroke-linecap="round"/>
<path d="M22.372 14.8357C22.5 13.9227 22.5 12.7279 22.5 11C22.5 8.19974 22.5 6.79961 21.955 5.73005C21.4757 4.78924 20.7108 4.02433 19.77 3.54497C18.7004 3 17.3003 3 14.5 3H10.5C7.69974 3 6.29961 3 5.23005 3.54497C4.28924 4.02433 3.52433 4.78924 3.04497 5.73005C2.5 6.79961 2.5 8.19974 2.5 11C2.5 13.8003 2.5 15.2004 3.04497 16.27C3.52433 17.2108 4.28924 17.9757 5.23005 18.455C6.29961 19 7.69974 19 10.5 19H13.9257" stroke="#BABABA" stroke-width="1.5" stroke-linecap="round" stroke-linejoin="round"/>
</svg>
