<svg width="24" height="25" viewBox="0 0 24 25" fill="none" xmlns="http://www.w3.org/2000/svg">
<g clip-path="url(#clip0_232_6783)">
<mask id="mask0_232_6783" style="mask-type:luminance" maskUnits="userSpaceOnUse" x="0" y="1" width="24" height="24">
<path d="M0 1H24V25H0V1Z" fill="white"/>
</mask>
<g mask="url(#mask0_232_6783)">
<mask id="mask1_232_6783" style="mask-type:luminance" maskUnits="userSpaceOnUse" x="0" y="1" width="24" height="24">
<path d="M0 1H24V25H0V1Z" fill="white"/>
</mask>
<g mask="url(#mask1_232_6783)">
<path fill-rule="evenodd" clip-rule="evenodd" d="M15.75 7.75C15.75 8.16421 16.0858 8.5 16.5 8.5H21V13C21 13.4142 21.3358 13.75 21.75 13.75C22.1642 13.75 22.5 13.4142 22.5 13V7.75C22.5 7.70075 22.4952 7.65198 22.4856 7.60368C22.476 7.55538 22.4618 7.50848 22.4429 7.46299C22.4241 7.41749 22.401 7.37427 22.3736 7.33332C22.3462 7.29238 22.3152 7.25449 22.2803 7.21967C22.2455 7.18485 22.2076 7.15376 22.1667 7.1264C22.1257 7.09904 22.0825 7.07594 22.037 7.05709C21.9915 7.03824 21.9446 7.02402 21.8963 7.01441C21.848 7.0048 21.7992 7 21.75 7H16.5C16.0858 7 15.75 7.33579 15.75 7.75Z" fill="#FF4800"/>
<path fill-rule="evenodd" clip-rule="evenodd" d="M21.5303 7.96967C21.2374 7.67678 20.7626 7.67678 20.4697 7.96967L14.0304 14.4089C13.8839 14.5554 13.7071 14.6287 13.5 14.6287C13.2929 14.6287 13.116 14.5554 12.9695 14.4089L10.5912 12.0305C10.1518 11.591 9.62142 11.3713 9 11.3713C8.37858 11.3713 7.84821 11.591 7.40889 12.0304L1.71967 17.7197C1.42678 18.0126 1.42678 18.4874 1.71967 18.7803C2.01256 19.0732 2.48744 19.0732 2.78033 18.7803L8.46955 13.0911C8.61604 12.9446 8.79286 12.8713 9 12.8713C9.20714 12.8713 9.38393 12.9446 9.53039 13.091L11.9089 15.4695C12.3482 15.909 12.8786 16.1287 13.5 16.1287C14.1214 16.1287 14.6518 15.9089 15.0912 15.4695L21.5303 9.03033C21.8232 8.73744 21.8232 8.26256 21.5303 7.96967Z" fill="#FF4800"/>
</g>
</g>
</g>
<defs>
<clipPath id="clip0_232_6783">
<rect width="24" height="24" fill="white" transform="translate(0 0.5)"/>
</clipPath>
</defs>
</svg>
