<svg width="24" height="24" viewBox="0 0 24 24" fill="none" xmlns="http://www.w3.org/2000/svg">
<path fill-rule="evenodd" clip-rule="evenodd" d="M19.0859 4.92068C18.1634 3.9921 17.0658 3.25581 15.8567 2.75446C14.6476 2.25311 13.3511 1.99667 12.0421 2C6.55351 2 2.08541 6.46699 2.08319 11.9578C2.08319 13.7127 2.54132 15.4254 3.41209 16.9362L2 22.0954L7.27897 20.7099C8.73919 21.5048 10.3751 21.9216 12.0377 21.9223H12.0421C17.5296 21.9223 21.9977 17.4553 22 11.9645C22.0037 10.6561 21.7481 9.35993 21.248 8.15092C20.7478 6.9419 20.013 5.844 19.0859 4.92068ZM12.0421 20.2418H12.0388C10.5563 20.2419 9.10108 19.8431 7.82583 19.087L7.52412 18.9073L4.39156 19.7293L5.22684 16.6755L5.0305 16.3627C4.20165 15.0432 3.76287 13.5161 3.76483 11.9578C3.76705 7.39433 7.47974 3.68164 12.0455 3.68164C13.1328 3.67922 14.2098 3.89249 15.2142 4.30909C16.2186 4.7257 17.1304 5.33737 17.8968 6.1087C18.6673 6.87636 19.278 7.78911 19.6937 8.79422C20.1093 9.79932 20.3216 10.8768 20.3183 11.9645C20.3161 16.528 16.6034 20.2418 12.0421 20.2418ZM16.5823 14.0421C16.3327 13.9168 15.1103 13.3156 14.8818 13.2324C14.6544 13.1492 14.4892 13.1081 14.3228 13.3566C14.1564 13.6051 13.6794 14.1653 13.5341 14.3316C13.3888 14.498 13.2435 14.518 12.995 14.3938C12.7465 14.2695 11.9445 14.0066 10.9939 13.1592C10.254 12.4991 9.75484 11.685 9.60952 11.4354C9.46421 11.1858 9.59399 11.0516 9.71934 10.9273C9.83138 10.8164 9.96782 10.6367 10.0921 10.4914C10.2163 10.3461 10.2573 10.2429 10.3405 10.0765C10.4237 9.91013 10.3827 9.76482 10.3195 9.64058C10.2573 9.51524 9.75927 8.29062 9.55184 7.79256C9.35107 7.31003 9.14585 7.37437 8.99278 7.36771C8.83424 7.36123 8.67557 7.35827 8.5169 7.35884C8.39073 7.36205 8.26658 7.3913 8.15225 7.44475C8.03791 7.49819 7.93584 7.57469 7.85246 7.66943C7.62395 7.91901 6.98169 8.52023 6.98169 9.74486C6.98169 10.9695 7.87353 12.1531 7.99777 12.3194C8.12201 12.4858 9.75262 14.9983 12.2485 16.0765C12.843 16.3328 13.3067 16.4858 13.6672 16.6012C14.2629 16.7909 14.8053 16.7631 15.2346 16.6999C15.7127 16.6289 16.7066 16.0987 16.914 15.5174C17.1214 14.9362 17.1214 14.4381 17.0593 14.3339C16.9972 14.2296 16.8297 14.1664 16.5823 14.0421Z" fill="#FF4800"/>
</svg>
